<svg xmlns="http://www.w3.org/2000/svg" width="227.01" height="35" viewBox="0 0 227.01 35"><rect class="svg__rect" x="0" y="0" width="109.64999999999999" height="35" fill="#31C4F3"/><rect class="svg__rect" x="107.64999999999999" y="0" width="119.35999999999999" height="35" fill="#389AD5"/><path class="svg__text" d="M13.95 18.19L13.95 18.19L13.95 17.39Q13.95 16.19 14.38 15.27Q14.80 14.35 15.60 13.85Q16.40 13.35 17.45 13.35L17.45 13.35Q18.86 13.35 19.73 14.12Q20.59 14.89 20.73 16.29L20.73 16.29L19.25 16.29Q19.14 15.37 18.71 14.96Q18.28 14.55 17.45 14.55L17.45 14.55Q16.48 14.55 15.97 15.26Q15.45 15.96 15.44 17.33L15.44 17.33L15.44 18.09Q15.44 19.47 15.93 20.20Q16.43 20.92 17.38 20.92L17.38 20.92Q18.25 20.92 18.69 20.53Q19.13 20.14 19.25 19.22L19.25 19.22L20.73 19.22Q20.60 20.59 19.72 21.35Q18.84 22.12 17.38 22.12L17.38 22.12Q16.36 22.12 15.59 21.63Q14.81 21.15 14.39 20.26Q13.97 19.37 13.95 18.19ZM26.52 22L25.04 22L25.04 13.47L26.52 13.47L26.52 17.02L30.34 17.02L30.34 13.47L31.81 13.47L31.81 22L30.34 22L30.34 18.21L26.52 18.21L26.52 22ZM42.13 22L36.55 22L36.55 13.47L42.09 13.47L42.09 14.66L38.04 14.66L38.04 17.02L41.54 17.02L41.54 18.19L38.04 18.19L38.04 20.82L42.13 20.82L42.13 22ZM46.06 18.19L46.06 18.19L46.06 17.39Q46.06 16.19 46.48 15.27Q46.91 14.35 47.71 13.85Q48.51 13.35 49.56 13.35L49.56 13.35Q50.97 13.35 51.83 14.12Q52.70 14.89 52.84 16.29L52.84 16.29L51.36 16.29Q51.25 15.37 50.82 14.96Q50.39 14.55 49.56 14.55L49.56 14.55Q48.59 14.55 48.08 15.26Q47.56 15.96 47.55 17.33L47.55 17.33L47.55 18.09Q47.55 19.47 48.04 20.20Q48.54 20.92 49.49 20.92L49.49 20.92Q50.36 20.92 50.80 20.53Q51.24 20.14 51.36 19.22L51.36 19.22L52.84 19.22Q52.71 20.59 51.83 21.35Q50.95 22.12 49.49 22.12L49.49 22.12Q48.47 22.12 47.69 21.63Q46.92 21.15 46.50 20.26Q46.07 19.37 46.06 18.19ZM58.63 22L57.15 22L57.15 13.47L58.63 13.47L58.63 17.47L59.45 16.46L61.95 13.47L63.74 13.47L60.57 17.25L63.92 22L62.16 22L59.60 18.31L58.63 19.34L58.63 22ZM67.43 18.00L67.43 18.00L67.43 17.52Q67.43 16.28 67.87 15.32Q68.32 14.37 69.12 13.86Q69.93 13.35 70.97 13.35Q72.01 13.35 72.82 13.85Q73.63 14.35 74.06 15.29Q74.50 16.23 74.51 17.48L74.51 17.48L74.51 17.96Q74.51 19.21 74.08 20.16Q73.64 21.10 72.84 21.61Q72.03 22.12 70.98 22.12L70.98 22.12Q69.95 22.12 69.13 21.61Q68.32 21.10 67.88 20.17Q67.44 19.23 67.43 18.00ZM68.91 17.46L68.91 17.96Q68.91 19.36 69.46 20.13Q70.01 20.90 70.98 20.90L70.98 20.90Q71.97 20.90 72.50 20.15Q73.03 19.40 73.03 17.96L73.03 17.96L73.03 17.51Q73.03 16.09 72.49 15.34Q71.96 14.58 70.97 14.58L70.97 14.58Q70.01 14.58 69.47 15.33Q68.93 16.09 68.91 17.46L68.91 17.46ZM78.84 19.16L78.84 19.16L78.84 13.47L80.32 13.47L80.32 19.18Q80.32 20.03 80.75 20.48Q81.18 20.93 82.03 20.93L82.03 20.93Q83.74 20.93 83.74 19.13L83.74 19.13L83.74 13.47L85.22 13.47L85.22 19.17Q85.22 20.53 84.35 21.32Q83.47 22.12 82.03 22.12L82.03 22.12Q80.56 22.12 79.70 21.33Q78.84 20.55 78.84 19.16ZM91.47 14.66L88.83 14.66L88.83 13.47L95.60 13.47L95.60 14.66L92.94 14.66L92.94 22L91.47 22L91.47 14.66Z" fill="#FFFFFF"/><path class="svg__text" d="M128.22 22L121.84 22L121.84 13.60L124.22 13.60L124.22 20.11L128.22 20.11L128.22 22ZM135.02 22L132.64 22L132.64 13.60L135.02 13.60L135.02 22ZM142.78 22L139.19 13.60L141.76 13.60L144.04 19.07L146.37 13.60L148.71 13.60L145.12 22L142.78 22ZM159.61 22L152.87 22L152.87 13.60L159.46 13.60L159.46 15.44L155.22 15.44L155.22 16.85L158.96 16.85L158.96 18.63L155.22 18.63L155.22 20.17L159.61 20.17L159.61 22ZM173.77 22L171.39 22L171.39 13.60L173.77 13.60L173.77 16.76L177.01 16.76L177.01 13.60L179.38 13.60L179.38 22L177.01 22L177.01 18.72L173.77 18.72L173.77 22ZM191.29 22L184.54 22L184.54 13.60L191.14 13.60L191.14 15.44L186.90 15.44L186.90 16.85L190.63 16.85L190.63 18.63L186.90 18.63L186.90 20.17L191.29 20.17L191.29 22ZM198.47 22L196.09 22L196.09 13.60L199.94 13.60Q201.08 13.60 201.92 13.98Q202.76 14.35 203.21 15.06Q203.67 15.76 203.67 16.71L203.67 16.71Q203.67 17.62 203.24 18.30Q202.81 18.98 202.02 19.36L202.02 19.36L203.83 22L201.29 22L199.77 19.77L198.47 19.77L198.47 22ZM198.47 15.47L198.47 17.93L199.79 17.93Q200.52 17.93 200.90 17.61Q201.27 17.29 201.27 16.71L201.27 16.71Q201.27 16.12 200.90 15.79Q200.52 15.47 199.79 15.47L199.79 15.47L198.47 15.47ZM215.20 22L208.46 22L208.46 13.60L215.05 13.60L215.05 15.44L210.81 15.44L210.81 16.85L214.54 16.85L214.54 18.63L210.81 18.63L210.81 20.17L215.20 20.17L215.20 22Z" fill="#FFFFFF" x="120.64999999999999"/></svg>