<?xml version="1.0" encoding="UTF-8"?>
<svg id="Layer_1" data-name="Layer 1" xmlns="http://www.w3.org/2000/svg" xmlns:xlink="http://www.w3.org/1999/xlink" viewBox="0 0 500 220">
  <defs>
    <style>
      .cls-1, .cls-2 {
        fill: #fff;
      }

      .cls-3 {
        fill: #1ad2a4;
      }

      .cls-4 {
        fill: #455a64;
      }

      .cls-2 {
        filter: url(#drop-shadow-1);
      }
    </style>
    <filter id="drop-shadow-1" filterUnits="userSpaceOnUse">
      <feOffset dx="2" dy="2"/>
      <feGaussianBlur result="blur" stdDeviation="3"/>
      <feFlood flood-color="#000" flood-opacity=".06"/>
      <feComposite in2="blur" operator="in"/>
      <feComposite in="SourceGraphic"/>
    </filter>
  </defs>
  <rect class="cls-2" x="10.27" y="19.67" width="480.91" height="180.73" rx="9.51" ry="9.51"/>
  <g>
    <path class="cls-4" d="M199.7,114.81v-27.28h5.19v13.26h-.64v14.02h-4.55Zm10.08,.57c-2.03,0-3.73-.47-5.1-1.42-1.36-.95-2.39-2.24-3.08-3.86s-1.03-3.47-1.03-5.51,.34-3.88,1.02-5.51c.68-1.63,1.69-2.92,3.01-3.87,1.33-.95,2.96-1.42,4.91-1.42s3.66,.47,5.12,1.4c1.45,.94,2.58,2.21,3.38,3.84s1.2,3.48,1.2,5.56-.39,3.88-1.18,5.51-1.89,2.92-3.31,3.86c-1.42,.95-3.06,1.42-4.95,1.42Zm-.83-4.59c1.11,0,2.02-.28,2.73-.83,.71-.56,1.23-1.3,1.57-2.25,.34-.94,.51-1.99,.51-3.14s-.18-2.18-.53-3.12c-.35-.94-.9-1.69-1.64-2.25-.74-.56-1.68-.84-2.83-.84-1.07,0-1.94,.26-2.6,.78s-1.15,1.24-1.45,2.18c-.3,.94-.45,2.02-.45,3.26s.15,2.32,.45,3.26c.3,.94,.8,1.66,1.49,2.18s1.61,.78,2.76,.78Z"/>
    <path class="cls-4" d="M231,115.42c-1.6,0-2.91-.27-3.92-.81s-1.8-1.23-2.36-2.07c-.56-.83-.96-1.7-1.2-2.6-.24-.9-.39-1.73-.44-2.47-.05-.75-.08-1.29-.08-1.63v-11.48h5.23v9.66c0,.47,.03,1.06,.08,1.79,.05,.73,.21,1.46,.47,2.19,.27,.73,.7,1.35,1.3,1.84,.6,.49,1.45,.74,2.55,.74,.44,0,.92-.07,1.42-.21,.51-.14,.98-.41,1.42-.81,.44-.4,.81-.99,1.09-1.76s.43-1.8,.43-3.06l2.96,1.4c0,1.62-.33,3.13-.99,4.55-.66,1.41-1.65,2.56-2.97,3.43-1.32,.87-2.98,1.31-4.99,1.31Zm6.63-.61v-6.78h-.64v-13.68h5.19v20.46h-4.55Z"/>
    <path class="cls-4" d="M250.1,123.91l3.94-10.84,.08,3.18-8.91-21.9h5.34l5.99,15.5h-1.21l5.95-15.5h5.15l-11.56,29.56h-4.78Z"/>
    <path class="cls-4" d="M276.62,114.81v-20.46h4.55v6.78h.64v13.68h-5.19Zm12.35,0v-12.09c0-1.35-.32-2.4-.96-3.15s-1.52-1.13-2.64-1.13-1.94,.37-2.59,1.11c-.65,.74-.98,1.7-.98,2.87l-2.16-1.52c0-1.34,.33-2.54,1-3.6s1.57-1.9,2.7-2.52c1.13-.62,2.4-.93,3.8-.93,1.6,0,2.92,.34,3.95,1.02,1.03,.68,1.79,1.59,2.28,2.73,.49,1.14,.74,2.39,.74,3.75v13.45h-5.15Zm12.32,0v-12.09c0-1.35-.32-2.4-.96-3.15s-1.52-1.13-2.64-1.13c-.72,0-1.35,.17-1.88,.5-.53,.33-.94,.8-1.24,1.4-.3,.6-.45,1.29-.45,2.07l-2.16-1.44c0-1.4,.33-2.64,1-3.71,.66-1.07,1.55-1.91,2.67-2.51,1.12-.6,2.36-.9,3.72-.9,2.34,0,4.1,.69,5.3,2.08,1.19,1.38,1.79,3.19,1.79,5.43v13.45h-5.15Z"/>
    <path class="cls-4" d="M320.5,115.38c-2.1,0-3.94-.45-5.54-1.36-1.6-.9-2.85-2.15-3.75-3.73-.9-1.58-1.35-3.4-1.35-5.45,0-2.24,.44-4.18,1.33-5.84,.88-1.65,2.1-2.94,3.66-3.86s3.34-1.37,5.36-1.37c2.15,0,3.97,.51,5.48,1.52s2.61,2.43,3.33,4.26c.72,1.83,.97,3.99,.76,6.46h-5.1v-1.9c0-2.08-.33-3.58-1-4.5-.66-.92-1.75-1.37-3.25-1.37-1.76,0-3.05,.53-3.88,1.6-.83,1.07-1.24,2.64-1.24,4.73,0,1.91,.41,3.38,1.24,4.42,.83,1.04,2.04,1.56,3.65,1.56,1.01,0,1.88-.22,2.6-.66s1.27-1.08,1.65-1.91l5.15,1.48c-.77,1.87-1.99,3.32-3.65,4.36-1.66,1.04-3.48,1.55-5.45,1.55Zm-6.78-9.36v-3.83h13.57v3.83h-13.57Z"/>
    <path class="cls-3" d="M341.57,114.81v-27.28h5.19v13.26h-.64v14.02h-4.55Zm10.08,.57c-2.03,0-3.73-.47-5.1-1.42s-2.39-2.24-3.08-3.86-1.03-3.47-1.03-5.51,.34-3.88,1.02-5.51c.68-1.63,1.69-2.92,3.01-3.87,1.33-.95,2.96-1.42,4.91-1.42s3.66,.47,5.12,1.4c1.45,.94,2.58,2.21,3.38,3.84,.8,1.62,1.2,3.48,1.2,5.56s-.4,3.88-1.18,5.51-1.89,2.92-3.31,3.86c-1.41,.95-3.06,1.42-4.95,1.42Zm-.83-4.59c1.11,0,2.02-.28,2.73-.83,.71-.56,1.23-1.3,1.57-2.25s.51-1.99,.51-3.14-.18-2.18-.53-3.12c-.35-.94-.9-1.69-1.64-2.25-.74-.56-1.68-.84-2.83-.84-1.07,0-1.94,.26-2.61,.78s-1.15,1.24-1.45,2.18c-.3,.94-.46,2.02-.46,3.26s.15,2.32,.46,3.26c.3,.94,.8,1.66,1.49,2.18s1.61,.78,2.76,.78Z"/>
    <path class="cls-3" d="M374.47,115.38c-2.06,0-3.87-.46-5.42-1.38s-2.76-2.19-3.63-3.82c-.87-1.62-1.3-3.49-1.3-5.6s.44-4.01,1.33-5.64c.88-1.62,2.1-2.89,3.66-3.8,1.55-.91,3.34-1.36,5.36-1.36s3.87,.46,5.43,1.38c1.56,.92,2.78,2.19,3.65,3.82,.87,1.62,1.31,3.49,1.31,5.6s-.44,3.99-1.32,5.62c-.88,1.62-2.1,2.89-3.66,3.81-1.56,.92-3.36,1.37-5.41,1.37Zm0-4.81c1.65,0,2.89-.56,3.7-1.68,.81-1.12,1.22-2.55,1.22-4.31s-.41-3.27-1.24-4.36-2.06-1.63-3.68-1.63c-1.12,0-2.05,.25-2.77,.76s-1.25,1.21-1.6,2.1c-.35,.9-.52,1.94-.52,3.13,0,1.83,.41,3.29,1.24,4.37,.83,1.08,2.04,1.62,3.65,1.62Z"/>
    <path class="cls-3" d="M398.23,115.38c-2.06,0-3.87-.46-5.42-1.38s-2.76-2.19-3.63-3.82c-.87-1.62-1.3-3.49-1.3-5.6s.44-4.01,1.33-5.64c.88-1.62,2.1-2.89,3.66-3.8,1.55-.91,3.34-1.36,5.36-1.36s3.87,.46,5.43,1.38c1.56,.92,2.78,2.19,3.65,3.82,.87,1.62,1.31,3.49,1.31,5.6s-.44,3.99-1.32,5.62c-.88,1.62-2.1,2.89-3.66,3.81-1.56,.92-3.36,1.37-5.41,1.37Zm0-4.81c1.65,0,2.89-.56,3.7-1.68,.81-1.12,1.22-2.55,1.22-4.31s-.41-3.27-1.24-4.36-2.06-1.63-3.68-1.63c-1.12,0-2.05,.25-2.77,.76s-1.25,1.21-1.6,2.1c-.35,.9-.52,1.94-.52,3.13,0,1.83,.41,3.29,1.24,4.37,.83,1.08,2.04,1.62,3.65,1.62Z"/>
    <path class="cls-3" d="M412.74,114.81l.04-27.28h5.23v16.67l6.93-9.85h6.37l-7.39,10.23,7.88,10.23h-6.71l-7.09-9.85v9.85h-5.27Z"/>
    <path class="cls-3" d="M441.31,115.38c-2.58,0-4.66-.58-6.24-1.75s-2.55-2.82-2.89-4.96l5.27-.8c.21,.96,.69,1.71,1.43,2.25,.74,.54,1.68,.81,2.81,.81,.93,0,1.65-.18,2.16-.54,.5-.36,.76-.86,.76-1.51,0-.4-.1-.73-.3-.98-.2-.25-.65-.49-1.36-.73s-1.79-.56-3.27-.95c-1.67-.43-3-.91-4-1.44-1-.53-1.72-1.17-2.16-1.9-.44-.74-.66-1.63-.66-2.68,0-1.31,.33-2.45,1-3.42,.67-.97,1.61-1.71,2.83-2.24,1.22-.52,2.66-.79,4.31-.79s3.02,.25,4.26,.74,2.24,1.19,3,2.1c.76,.91,1.23,1.98,1.41,3.22l-5.27,.95c-.09-.76-.42-1.36-.99-1.8-.57-.44-1.34-.7-2.31-.78-.95-.06-1.71,.06-2.28,.38-.58,.32-.86,.77-.86,1.36,0,.35,.12,.65,.37,.89,.25,.24,.76,.49,1.53,.74,.78,.25,1.96,.58,3.55,.98,1.55,.4,2.8,.88,3.74,1.41,.94,.54,1.63,1.18,2.06,1.93,.43,.75,.64,1.66,.64,2.72,0,2.1-.76,3.75-2.27,4.94-1.52,1.2-3.61,1.8-6.29,1.8Z"/>
  </g>
  <g>
    <path class="cls-4" d="M203.2,75.57c.2,0,.6-.51,1.19-1.54,.59-1.03,1.19-2.06,1.79-3.09,.6-1.03,1.02-1.54,1.26-1.54,.36,0,.54,.16,.54,.47,0,.17-.18,.55-.54,1.16-.36,.6-.87,1.45-1.54,2.55-.67,1.09-1.19,1.99-1.56,2.68-.37,.69-.75,1.39-1.12,2.1s-.65,1.22-.83,1.54c-.17,.32-.36,.66-.57,1.02-.37,.61-.65,.92-.84,.92-.14,0-.22-.1-.22-.31s.05-.46,.15-.74c.1-.29,.28-.69,.55-1.22,.4-.81,.9-1.81,1.51-2.98-.71-.13-1.38-.55-2.02-1.25-.64-.7-1.14-1.51-1.51-2.43-.37-.92-.55-1.79-.55-2.6,0-.26,.04-.48,.13-.65,.08-.17,.19-.25,.33-.25s.26,.19,.38,.57,.27,.91,.46,1.61c.19,.69,.45,1.35,.76,1.97s.69,1.12,1.12,1.48c.43,.36,.81,.55,1.13,.55Z"/>
    <path class="cls-4" d="M208.93,76.12c.4-.9,.94-1.66,1.62-2.26,.69-.6,1.38-.91,2.08-.91s1.25,.3,1.65,.89c.4,.59,.6,1.28,.6,2.07,0,1.41-.46,2.72-1.38,3.93-.92,1.21-1.99,1.81-3.2,1.81-.6,0-1.08-.27-1.44-.81s-.54-1.24-.54-2.09,.2-1.73,.59-2.64Zm3.23,3.68c.55-.57,.97-1.21,1.25-1.93,.28-.72,.42-1.35,.42-1.9s-.09-1.02-.28-1.41c-.19-.39-.43-.66-.75-.8-.99,.19-1.81,.83-2.44,1.92-.63,1.09-.95,2.23-.95,3.41,0,.9,.31,1.45,.92,1.67,.67-.07,1.28-.39,1.83-.96Z"/>
    <path class="cls-4" d="M222.7,73.24c0-.19,.09-.29,.27-.29,.14,0,.29,.11,.45,.33,.16,.22,.23,.45,.23,.69,0,.07-.65,2.38-1.96,6.93-.14,.5-.31,.75-.5,.75-.26,0-.39-.2-.39-.59s.2-1.21,.59-2.46c-.49,.95-1.05,1.69-1.68,2.23-.63,.54-1.22,.82-1.77,.82s-1.01-.21-1.39-.64-.57-.89-.57-1.39c0-.74,.16-1.65,.49-2.74s.7-2.01,1.11-2.78c.41-.77,.74-1.16,.98-1.16,.13,0,.25,.07,.35,.21,.1,.14,.15,.28,.15,.41s-.17,.54-.49,1.19c-.33,.66-.66,1.45-1,2.39-.33,.93-.5,1.79-.5,2.57,0,.28,.09,.51,.26,.69,.17,.19,.39,.28,.64,.28,.6,0,1.25-.46,1.95-1.39,.7-.93,1.28-1.93,1.75-3.01,.47-1.05,.8-2.03,1.01-2.94,.01-.05,.02-.08,.02-.11Z"/>
    <path class="cls-4" d="M234.86,81.66c-.66,0-1.27-.24-1.81-.73-.54-.48-.82-1.11-.82-1.88s.25-1.64,.74-2.6,1.12-1.79,1.89-2.47c.77-.68,1.51-1.02,2.22-1.02,.53,0,.95,.19,1.28,.57s.49,.69,.49,.92-.07,.36-.22,.36-.37-.13-.67-.39-.58-.39-.82-.39c-.48,0-1.02,.29-1.63,.88s-1.13,1.29-1.55,2.1-.64,1.48-.64,1.98,.14,.9,.42,1.18c.28,.28,.68,.42,1.18,.42s.98-.07,1.43-.22c.44-.14,.79-.28,1.05-.42,.26-.14,.45-.21,.57-.21,.17,0,.25,.1,.25,.29,0,.25-.4,.58-1.18,1-.79,.41-1.52,.62-2.18,.62Z"/>
    <path class="cls-4" d="M244.11,72.95c.62,0,1.1,.26,1.44,.77,.34,.51,.51,.98,.51,1.39s-.13,.8-.4,1.16c.11,.12,.16,.28,.16,.47,0,.77-.06,1.49-.19,2.17-.13,.68-.21,1.23-.24,1.63-.04,.41-.07,.69-.12,.86-.04,.17-.12,.25-.22,.25-.2,0-.33-.19-.4-.58-.06-.39-.09-.99-.09-1.8-.37,.66-.84,1.22-1.41,1.69-.57,.47-1.12,.7-1.67,.7s-1.07-.21-1.57-.63c-.5-.42-.75-.88-.75-1.38,0-.77,.27-1.68,.8-2.74,.53-1.06,1.2-1.98,2-2.77,.8-.79,1.51-1.18,2.14-1.18Zm1.02,3.1c-.01-.08-.02-.28-.02-.6s-.07-.64-.21-.96-.34-.48-.62-.48c-.46,0-1,.34-1.64,1.03-.64,.69-1.19,1.48-1.66,2.39-.47,.9-.7,1.65-.7,2.23,0,.26,.12,.48,.37,.66,.25,.18,.51,.27,.78,.27,.62,0,1.26-.4,1.9-1.2,.65-.8,1.14-1.79,1.47-2.96,.04-.2,.14-.33,.32-.38Z"/>
    <path class="cls-4" d="M254.13,72.95c.31,0,.65,.23,1.03,.69,.38,.46,.57,.94,.57,1.44,0,.75-.2,1.73-.58,2.92-.39,1.19-.73,2.1-1.02,2.72-.29,.62-.56,.93-.82,.93-.19,0-.29-.1-.29-.31s.05-.46,.15-.78c.1-.32,.25-.75,.46-1.3,.71-1.88,1.06-3.25,1.06-4.11,0-.27-.08-.51-.24-.71-.16-.2-.3-.3-.41-.3s-.22,.02-.31,.06c-.1,.04-.2,.11-.31,.21-.12,.1-.22,.19-.32,.3s-.23,.25-.38,.44c-.15,.19-.28,.36-.38,.51-.11,.15-.26,.36-.44,.63-.19,.27-.34,.49-.46,.67-.48,.75-.84,1.31-1.08,1.66-.24,.35-.53,.81-.88,1.37-.68,1.1-1.07,1.65-1.15,1.65-.13,0-.27-.09-.42-.26-.15-.17-.22-.32-.22-.44s.05-.33,.14-.65c.4-1.27,.65-2.15,.75-2.64,.36-1.53,.54-2.83,.54-3.9,0-.56,.11-.84,.32-.84,.17,0,.33,.11,.5,.33,.17,.22,.25,.52,.25,.89s-.13,1.12-.39,2.26c-.26,1.14-.54,2.13-.85,2.98,1.39-2.38,2.47-4.05,3.23-5.01,.77-.96,1.42-1.44,1.96-1.44Z"/>
  </g>
  <g>
    <g id="_2ZjEEl.tif" data-name="2ZjEEl.tif">
      <g>
        <path class="cls-4" d="M129.3,136.43c0,.5,.02,.95,0,1.4-.06,1.01-.59,1.58-1.59,1.62-.94,.04-1.88,.04-2.82,.01-1.24-.03-1.75-.56-1.78-1.79,0-.39,0-.78,0-1.3-1.28,0-2.48,0-3.69,0-2.17,0-2.47-.3-2.53-2.43,0-.18-.03-.36-.05-.68-1.51,0-3.02,.02-4.52,0-1.08-.02-1.69-.67-1.62-1.65,.06-.76,.47-1.33,1.23-1.35,2.24-.06,4.48-.05,6.72-.01,.77,.01,1.18,.58,1.27,1.31,.07,.53,.07,1.08,.1,1.67h3.02c.23-1.2-.42-3,1.61-2.99,1.99,.01,1.41,1.78,1.61,3h2.83c.23-.89,.21-1.97,.74-2.53,.5-.53,1.58-.5,2.4-.72,.19-.74,.16-1.82,.69-2.38,.5-.53,1.58-.5,2.54-.76,.02-.35,.02-.89,.08-1.42,.11-.96,.65-1.45,1.55-1.44,.89,.02,1.44,.53,1.48,1.49,.05,.97,.04,1.94,.02,2.91-.03,1.22-.58,1.73-1.82,1.76-.39,0-.77,0-1.22,0v3.13c.96,0,1.91,0,2.86,0,.21,0,.42,0,.64,0,2.4,0,2.55,.15,2.66,2.56,0,.15,.04,.29,.05,.32,.91,.23,1.97,.19,2.5,.71,.53,.51,.53,1.57,.79,2.52h9.12c0-.39,0-.74,0-1.1,.04-1.45,.46-1.88,1.93-1.91,1.09-.02,2.18,0,3.27,0,.3,0,.59-.02,.91-.04,.27-1.2-.42-3.02,1.61-3.01,2.01,0,1.37,1.81,1.62,2.95q2.66,.45,3.14,3.14c1.13,.28,2.95-.41,2.94,1.62,0,2.01-1.82,1.36-3.05,1.63,0,1.29,0,2.56,0,3.82,0,1.85-.4,2.25-2.23,2.28-.24,0-.48,.02-.86,.04,0,1.07,0,2.12,0,3.16,0,.48,.03,.97-.02,1.45-.1,1.01-.56,1.48-1.58,1.5-2.18,.04-4.36,.03-6.55,.04-1.18,0-1.17,0-1.18,1.19,0,1.15,0,2.3-.03,3.45-.02,.93-.51,1.49-1.44,1.54-1.06,.05-2.12,.09-3.17,0-1.1-.09-1.48-.57-1.5-1.67-.02-1.24-.03-2.49,0-3.73,.01-.58-.16-.79-.77-.8-2.41-.06-2.41-.08-2.41,2.34,0,.79,.02,1.58-.02,2.36-.04,.82-.45,1.41-1.32,1.46-1.09,.06-2.18,.11-3.26,.04-1.14-.08-1.49-.54-1.56-1.72-.02-.41,0-.83,0-1.35-1.18,0-2.23,0-3.28,0-.57,0-1.15-.02-1.72-.09-.83-.11-1.21-.67-1.21-1.45,0-.8,.42-1.32,1.22-1.46,.35-.06,.72-.05,1.09-.06,2.3,0,4.6,0,6.97,0v-15.35c-.86-.21-1.96-.17-2.5-.7-.55-.53-.54-1.63-.8-2.56h-9.09Zm15.55,15.46h9.18c.05-.11,.1-.17,.1-.22,.01-2.84,.01-5.69,.03-8.53,0-.55-.34-.54-.72-.54-2.69,0-5.39,0-8.08,0-.17,0-.34,.07-.56,.12,0,2.84,0,5.66,0,8.47,0,.21,.03,.41,.05,.7Zm15.46-6.19v-6.15h-3.01v6.15h3.01Z"/>
        <path class="cls-4" d="M85.81,145.7c.41,.02,.67,.05,.94,.05,1.72,0,3.44,0,5.32,0,0-.55-.02-1.03,0-1.49,.06-1.06,.53-1.56,1.58-1.6,1-.04,2-.04,3,0,1.07,.04,1.53,.52,1.57,1.58,.02,.45,0,.9,0,1.3,.94,.21,2.04,.16,2.58,.68,.54,.52,.52,1.63,.79,2.65,.36,0,.89-.02,1.42,0,.88,.04,1.41,.6,1.43,1.44,.02,.85-.48,1.44-1.36,1.51-.53,.05-1.08,0-1.68,0v3.2c.5,0,.97-.02,1.44,0,1.02,.06,1.58,.59,1.59,1.49,0,.87-.48,1.43-1.47,1.5-.96,.07-1.94,.08-2.91,.03-1.33-.06-1.79-.53-1.81-1.87-.03-2.09-.01-4.18-.01-6.28,0-.33,0-.66,0-1.07h-6.16v3.09c.47,0,.94-.02,1.41,0,1.1,.04,1.6,.54,1.61,1.65,.02,2.18,0,4.37,0,6.55,0,.33,0,.65,0,.98,1.25,.35,3.22-.44,3.06,1.78-.13,1.84-1.82,1.24-3.07,1.51,0,.41,0,.85,0,1.29-.03,1.02-.44,1.62-1.42,1.66-2.12,.08-4.24,.08-6.36,0-1-.03-1.52-.72-1.47-1.61,.05-.85,.6-1.37,1.58-1.4,1.48-.03,2.96,0,4.52,0v-9.16c-.91-.25-1.99-.25-2.54-.79-.52-.51-.47-1.6-.65-2.37-.8-.2-1.86-.16-2.39-.68-.53-.51-.52-1.58-.78-2.51h-2.83v2.87c.89,.22,1.98,.19,2.54,.71,.53,.5,.49,1.59,.75,2.6,.32,0,.82-.03,1.32,0,.98,.06,1.51,.58,1.53,1.45,.02,.9-.44,1.46-1.43,1.53-1.06,.07-2.12,.08-3.18,.01-1.09-.07-1.47-.51-1.55-1.62-.03-.44,0-.89,0-1.39-.6-.03-1.08-.07-1.56-.08-.91-.02-1.4-.5-1.51-1.37-.05-.36-.06-.72-.06-1.09,0-2.43,0-4.85,0-7.28-.01-2.08,.37-2.7,2.48-2.59,.17,0,.35-.04,.59-.07,.03-.56,.03-1.1,.1-1.63,.12-.95,.7-1.44,1.57-1.41,.83,.03,1.4,.54,1.43,1.46,.05,1.54,.01,3.09,.01,4.73Z"/>
        <path class="cls-4" d="M104.44,71.26c-1.22-.24-3.01,.37-3.02-1.62,0-2,1.81-1.36,3.01-1.62v-6.08c-1.18-.34-3.1,.44-3.01-1.71,.08-1.87,1.76-1.3,3.06-1.5,0-.7,0-1.41,0-2.12,0-.85-.02-1.7,.03-2.54,.05-.96,.61-1.46,1.5-1.46,.9,0,1.43,.5,1.5,1.47,.04,.51,0,1.02,0,1.58h3.18c0-.56-.03-1.06,0-1.57,.06-.9,.53-1.41,1.43-1.45,1.09-.05,2.18-.05,3.27,0,.93,.04,1.46,.65,1.44,1.52-.02,.83-.56,1.38-1.43,1.45-.12,.01-.24,0-.36,0q-1.26,.02-1.32,1.32c-.05,1.34-.48,1.75-1.86,1.77-.36,0-.72,0-1.04,0-.21,.94-.15,2.05-.67,2.59-.52,.54-1.63,.52-2.57,.77v5.97h3.09c0-1.3,0-2.56,0-3.82,0-1.91,.38-2.29,2.27-2.33,.24,0,.47-.03,.75-.05,.27-1.17-.41-2.99,1.6-3,2.02-.01,1.38,1.8,1.63,2.98,1.19,.23,2.99-.36,2.98,1.63-.01,1.95-1.77,1.35-3.06,1.6,0,1.03,0,2.07,0,3.12,0,.45,.01,.91-.02,1.36-.07,1.09-.56,1.56-1.67,1.63-.42,.03-.84,0-1.35,0v3.12c.46,0,.9-.02,1.34,0,1.07,.05,1.64,.57,1.66,1.64,.04,2.03,.04,4.06,0,6.09-.02,1.03-.6,1.55-1.52,1.55-.91,0-1.48-.55-1.5-1.57-.04-1.51,0-3.01,0-4.63-.53,0-.94,0-1.36,0-1.18-.03-1.72-.55-1.74-1.73-.02-1.45,0-2.89,0-4.4h-3.07c-.3,1.15,.44,3-1.6,2.99-2,0-1.39-1.8-1.58-2.98Z"/>
        <path class="cls-4" d="M73.39,114.66c1.44,0,2.74,0,4.04,0,1.73,0,2.14,.41,2.18,2.14,0,.27,0,.54,0,.91,.53,.02,1,.03,1.47,.07,1.08,.08,1.56,.52,1.61,1.58,.05,1.03,.05,2.06,0,3.09-.05,.96-.63,1.51-1.48,1.52-.8,.01-1.37-.49-1.51-1.39-.08-.53-.08-1.07-.11-1.59q-2.87-.53-3.11-3.15h-3.08c0,.49,.02,1,0,1.5-.05,.94-.61,1.51-1.46,1.53-.88,.02-1.5-.57-1.57-1.53-.03-.48,0-.96,0-1.5h-3.13c0,1.03,0,2.02,0,3.01,0,2.99-.15,3.15-3.11,3.15-.99,0-1.99,0-3.04,0v2.92c.86,.21,1.95,.17,2.5,.7,.54,.53,.54,1.63,.81,2.62,.33,0,.81-.01,1.28,0,.89,.03,1.46,.49,1.5,1.38,.06,1.15,.07,2.3-.01,3.45-.06,.88-.69,1.35-1.53,1.33-.82-.02-1.37-.55-1.44-1.45-.04-.51,0-1.02,0-1.65-.82,0-1.54,0-2.25,0-1.79,0-3.58,.01-5.36-.01-1.12-.01-1.72-.59-1.7-1.56,.02-.93,.61-1.45,1.69-1.48,.42-.01,.84,0,1.33,0v-6.15c-1.19-.27-3.04,.37-2.98-1.72,.06-1.91,1.76-1.28,2.98-1.52,.02-.44,.04-.91,.08-1.38,.08-1.08,.62-1.67,1.53-1.66,.87,0,1.39,.55,1.49,1.59,.05,.47,.06,.95,.09,1.47h3.01v-3.09c-.38,0-.73,0-1.08,0-1.28-.03-1.94-.55-1.94-1.53,0-1,.65-1.54,1.92-1.55,2.18,0,4.36,0,6.55,0,.24,0,.47-.02,.85-.04,0-.53-.03-1.04,0-1.54,.07-.96,.69-1.54,1.58-1.52,.85,.02,1.41,.59,1.45,1.53,.02,.48,0,.96,0,1.57Z"/>
        <path class="cls-4" d="M76.59,156.61c-.11,1.96-.05,3.95-.37,5.88-.52,3.16-2.27,4.65-5.47,4.75-3.39,.1-6.78,.11-10.17,0-3.38-.11-5.37-1.93-5.55-5.28-.19-3.59-.18-7.21,0-10.8,.16-3.23,1.86-5,5.1-5.19,3.68-.22,7.39-.22,11.07,0,3.26,.2,4.89,2.03,5.13,5.28,.13,1.78,.02,3.57,.02,5.36,.08,0,.15,0,.23,0Zm-18.79,0c.1,1.38,.12,2.81,.31,4.22,.26,1.99,1.4,3.19,3.4,3.29,2.75,.14,5.51,.15,8.26,0,2.13-.11,3.4-1.44,3.5-3.59,.12-2.66,.12-5.33,0-7.99-.1-2.16-1.46-3.51-3.61-3.6-2.63-.12-5.27-.11-7.9,0-2.13,.09-3.4,1.34-3.66,3.46-.17,1.38-.19,2.78-.29,4.21Z"/>
        <path class="cls-4" d="M147.85,64.03c.12-2.5,.09-4.45,.35-6.37,.41-3.11,2.14-4.74,5.25-4.86,3.54-.13,7.08-.14,10.62,0,3.27,.12,5.17,1.88,5.35,5.16,.21,3.65,.2,7.33,0,10.98-.18,3.16-1.84,4.81-5.1,5.13-3.95,.38-7.93,.48-11.87-.15-2.19-.35-3.7-1.65-4.06-3.86-.35-2.17-.4-4.39-.53-6.04Zm3.11-.61c.06,1.25,.09,2.53,.18,3.8,.15,2.17,1.27,3.63,3.36,3.76,2.86,.18,5.75,.17,8.62,0,1.87-.11,3.13-1.38,3.21-3.16,.14-2.93,.14-5.87,0-8.79-.08-1.72-1.25-2.79-2.97-3.09-2.92-.5-5.86-.47-8.78-.07-2.22,.31-3.28,1.61-3.43,3.9-.08,1.21-.12,2.42-.17,3.65Z"/>
        <path class="cls-4" d="M76.38,63.42c0,1.7,.09,3.4-.02,5.09-.23,3.45-1.78,5.34-5.19,5.54-3.88,.23-7.81,.12-11.69-.14-2.61-.18-4.27-1.97-4.39-4.64-.18-3.86-.2-7.75,0-11.62,.15-2.92,2.12-4.72,5.07-4.83,3.6-.14,7.2-.15,10.8-.01,3.29,.12,5.1,1.96,5.37,5.26,.14,1.78,.03,3.57,.03,5.36,0,0,.02,0,.03,0Zm-18.57,.13c.08,1.26,.11,2.69,.29,4.1,.25,1.97,1.32,3.21,3.26,3.33,2.86,.17,5.75,.17,8.62,0,1.94-.12,3.17-1.44,3.26-3.32,.13-2.81,.13-5.63,0-8.44-.08-1.86-1.24-3.14-3.09-3.26-2.89-.19-5.81-.24-8.69-.05-2.19,.14-3.2,1.44-3.42,3.68-.12,1.26-.15,2.54-.22,3.97Z"/>
        <path class="cls-4" d="M113.77,139.25c.15-1.06-.41-2.78,1.53-2.81,2.01-.03,1.42,1.76,1.64,3.05,1.2,0,2.37,0,3.54,0,2.3,0,2.55,.25,2.62,2.55,0,.15,.03,.3,.05,.58,1.18,0,2.35,.04,3.52,0,2.13-.09,2.8,.45,2.64,2.6-.01,.14,.03,.29,.05,.46,1.16,.28,3-.46,2.98,1.59-.01,2.02-1.85,1.31-3.05,1.62,0,.5,.03,.98,0,1.46-.07,.94-.57,1.45-1.5,1.49-.97,.05-1.94,.04-2.91,.02-1.27-.03-1.74-.52-1.77-1.78,0-.39,0-.78,0-1.23h-3.13c0,1.5,.03,2.95,0,4.4-.03,1.12-.47,1.63-1.36,1.71-.95,.08-1.58-.41-1.68-1.37-.05-.51,0-1.02,0-1.72-.57,0-1.07,0-1.56,0-1.09,0-2.18,.02-3.27-.04-.91-.05-1.44-.69-1.39-1.57,.04-.84,.58-1.38,1.48-1.39,1.54-.02,3.07,0,4.5,0,.24-.98,.21-2.06,.73-2.62,.49-.52,1.58-.48,2.52-.71v-2.87h-6.11c-.03,.51-.05,1.01-.08,1.51-.05,.9-.55,1.45-1.42,1.46-3.18,.04-6.36,.04-9.54,0-.92-.01-1.43-.72-1.39-1.58,.04-.82,.58-1.37,1.48-1.39,2.21-.04,4.42-.03,6.63-.04,.36,0,.71,0,.96,0,.25-.97,.23-2.05,.76-2.61,.5-.53,1.58-.5,2.56-.76Z"/>
        <path class="cls-4" d="M82.68,105.36v-3.08c-1.24-.2-3.02,.36-3-1.64,.02-1.91,1.77-1.36,3.06-1.59,0-1.09,0-2.16,0-3.24,0-.48,0-.97,.05-1.45,.1-.88,.6-1.38,1.5-1.4,.97-.02,1.94-.04,2.91,0,1.22,.03,1.69,.53,1.72,1.74,0,.39,0,.78,0,1.29,.54,.03,1.03,.04,1.53,.08,1.04,.07,1.54,.57,1.56,1.62,.02,.97,.02,1.94,0,2.91-.02,1.02-.53,1.56-1.58,1.6-1.18,.05-2.36,.02-3.54,.03-.32,0-.65,0-1.02,0v6.24c1.29,0,2.58,0,3.87,0,1.89,0,2.27,.39,2.28,2.29,0,.76,.02,1.52,0,2.27-.03,.98-.54,1.58-1.5,1.59-3.12,.03-6.24,.04-9.36,0-.99-.01-1.44-.57-1.5-1.7-.05-1.12-.02-2.24-.03-3.36,0-.33,0-.65,0-1.11-.56,0-1.04,.03-1.51,0-.99-.07-1.59-.66-1.59-1.53,0-.89,.65-1.52,1.66-1.53,1.48-.02,2.95,0,4.49,0Z"/>
        <path class="cls-4" d="M166.55,111.51c1.31,.18,3.02-.38,3.05,1.56,.02,2.02-1.76,1.42-2.99,1.63-.02,.29-.05,.55-.06,.81-.03,1.82-.44,2.23-2.28,2.23-2,0-4,0-6,0-.3,0-.59,.03-1.02,.04,0,.94,0,1.84,0,2.73,0,.52,.02,1.03-.01,1.54-.07,1.36-.55,1.85-1.91,1.89-1.39,.03-2.78,0-4.26,0-.03,.53-.04,1-.08,1.47-.07,1.07-.53,1.56-1.58,1.61-1,.04-2,.05-3,0-1.02-.05-1.53-.61-1.52-1.55,0-.96,.48-1.43,1.55-1.49,.47-.03,.95,0,1.54,0,0-.55,0-.96,0-1.38,.03-1.21,.49-1.7,1.72-1.73,1.3-.04,2.61-.01,3.91-.02,.15,0,.29-.03,.5-.06v-3.07c-1.53,0-3.01,.02-4.49,0-.99-.02-1.52-.46-1.63-1.25-.14-1.01,.41-1.72,1.44-1.8,.51-.04,1.02,0,1.65,0,0-1.6,0-3.1,0-4.61,0-.83,.36-1.41,1.2-1.58,.95-.19,1.71,.34,1.79,1.32,.08,1.05,.05,2.12,.07,3.18,0,.51,0,1.02,0,1.61h3.15c0-.36,0-.71,0-1.06,.03-1.48,.5-1.96,1.97-1.96,1.36,0,2.72,0,4.24,0,0-1.21,0-2.38,0-3.54,0-.39-.02-.79,0-1.18,.06-.91,.64-1.48,1.5-1.48,.86,0,1.48,.54,1.53,1.46,.06,1.15,.02,2.3,.03,3.45,0,.39,0,.78,0,1.24Z"/>
        <path class="cls-4" d="M141.76,86.68v3.08c1.2,.26,3.02-.39,2.99,1.65-.02,1.97-1.77,1.33-2.98,1.56v3.02h3.11c0-.54-.03-1.08,0-1.61,.05-.9,.58-1.4,1.45-1.42,.86-.02,1.47,.47,1.52,1.35,.06,1.12,.06,2.24,0,3.36-.04,.93-.57,1.38-1.56,1.42-.76,.03-1.51,.01-2.27,.02-.72,0-1.45,0-2.1,0-.24,.94-.2,2.03-.73,2.57-.53,.54-1.63,.53-2.63,.8,0,.38,.03,.89,0,1.39-.07,.88-.63,1.43-1.44,1.46-.84,.04-1.51-.51-1.57-1.42-.07-1.03-.07-2.06-.03-3.09,.05-1.14,.57-1.61,1.72-1.67,.42-.02,.84,0,1.31,0v-3.16c-1.38,0-2.71,0-4.03,0-.36,0-.74,.02-1.08-.09-.76-.24-1.12-.83-1.03-1.61,.09-.79,.57-1.28,1.38-1.31,1.21-.04,2.42-.03,3.64-.03,.36,0,.71,0,1.12,0v-3.08c-1.21-.24-2.9,.41-3.04-1.61-.07-1.06,.51-1.35,3.04-1.61,.03-.48,.07-.98,.09-1.48,.04-.9,.52-1.47,1.39-1.49,2.15-.05,4.3-.07,6.45,0,.97,.03,1.43,.67,1.39,1.57-.04,.88-.56,1.4-1.55,1.42-1.51,.03-3.01,0-4.58,0Z"/>
        <path class="cls-4" d="M154.17,80.45h9.32c0-.53-.02-1.03,0-1.53,.04-.84,.63-1.46,1.4-1.52,.78-.06,1.59,.53,1.61,1.39,.06,2.18,.06,4.36,0,6.54-.03,.91-.72,1.41-1.61,1.36-.87-.04-1.38-.6-1.41-1.56-.02-.48,0-.95,0-1.48h-9.25c-.35,1.15,.41,3-1.64,3.01-2.07,0-1.33-1.81-1.62-3.08-.52,0-1.03,.03-1.53,0-.91-.06-1.42-.53-1.46-1.42-.04-1.09-.04-2.18,0-3.27,.04-.89,.58-1.41,1.54-1.47,1-.06,2-.05,3,0,.99,.06,1.47,.57,1.56,1.55,.05,.48,.05,.96,.08,1.48Z"/>
        <path class="cls-4" d="M70.28,98.89c1.01,.28,2.09,.28,2.64,.82,.51,.51,.46,1.59,.67,2.5,1.05,.25,2.92-.48,2.86,1.66-.06,1.96-1.81,1.3-2.83,1.52-.23,.9-.21,1.98-.74,2.54-.5,.53-1.58,.51-2.59,.78,0,.31,.03,.82,0,1.32-.08,1-.67,1.55-1.57,1.52-.84-.02-1.41-.59-1.47-1.53-.03-.48,0-.96,0-1.56-.48,0-.87,0-1.25,0-1.31-.04-1.82-.54-1.86-1.82-.02-.85-.02-1.7,0-2.54,.03-1.29,.55-1.79,1.84-1.82,.38,0,.77,0,1.26,0,0-1.6-.02-3.07,0-4.55,.02-1,.51-1.56,1.34-1.64,.93-.09,1.59,.42,1.68,1.37,.05,.53,0,1.07,0,1.45Z"/>
        <path class="cls-4" d="M160.41,105.39q-.25,3.06-3.28,3.06c-.51,0-1.03,.02-1.54-.03-.93-.1-1.43-.67-1.42-1.57,.02-.88,.55-1.43,1.49-1.48,.48-.03,.96,0,1.37,0,.23-.94,.19-2.04,.72-2.58,.53-.54,1.63-.52,2.56-.77v-2.92c-.47,0-.94,.02-1.41,0-1.09-.04-1.64-.57-1.63-1.53,0-.96,.55-1.47,1.66-1.5,1.18-.03,2.36,0,3.54-.01,.3,0,.59-.02,1-.04,0-1.47,0-2.88,0-4.29,0-1.33,.47-1.82,1.78-1.87,.91-.03,1.82-.03,2.73,0,1.1,.05,1.65,.58,1.65,1.52,0,.92-.61,1.47-1.67,1.51-.42,.01-.84,0-1.42,0,0,1.04,0,2.03,0,3.01,0,.55,.02,1.09-.01,1.64-.07,.98-.58,1.49-1.56,1.54-.47,.03-.95,0-1.52,0,0,1.36,0,2.59,0,3.83,0,1.99-.39,2.38-2.38,2.43-.21,0-.41,.03-.67,.04Z"/>
        <path class="cls-4" d="M70.34,83.59c-2.33,0-4.51,0-6.69,0-.42,0-.85,0-1.27-.03-.81-.08-1.27-.55-1.33-1.35-.07-.79,.25-1.42,1.06-1.56,.77-.14,1.56-.13,2.34-.15,.88-.02,1.75,0,2.79,0,0-.48-.02-.92,0-1.36,.05-1.11,.58-1.71,1.68-1.73,3.03-.04,6.06-.04,9.08,0,1.05,.01,1.62,.66,1.59,1.6-.03,.93-.61,1.45-1.69,1.47-1.45,.02-2.9,0-4.43,0v3.08c.55,.04,1.11,.04,1.67,.12,.97,.15,1.4,.69,1.35,1.61-.05,.83-.56,1.35-1.49,1.39-.97,.04-1.94,.04-2.91,.01-1.23-.03-1.73-.56-1.76-1.81,0-.39,0-.78,0-1.29Z"/>
        <path class="cls-4" d="M123.09,161.19c.65,.03,1.19,.04,1.73,.1,.83,.09,1.38,.64,1.37,1.42,0,.78-.34,1.35-1.17,1.49-.44,.08-.9,.13-1.35,.13-3.42,.01-6.85-.02-10.27,.01-2.26,.02-2.89-.51-2.72-2.64,0-.11-.03-.23-.05-.4-.64-.07-1.27-.1-1.88-.2-.83-.13-1.17-.7-1.15-1.49,.02-.8,.43-1.32,1.25-1.41,.57-.07,1.14-.07,1.85-.12,0-.4,0-.79,0-1.17,.02-1.24,.5-1.85,1.49-1.87,1.02-.02,1.55,.59,1.56,1.88,.02,1.39,0,2.78,0,4.24h3.16c0-.52-.03-1.03,0-1.53,.06-.88,.53-1.42,1.43-1.46,.97-.04,1.94-.06,2.91-.03,1.3,.04,1.79,.55,1.83,1.85,.01,.36,0,.72,0,1.2Z"/>
        <path class="cls-4" d="M166.61,158.15v6.15c.53,.02,1.04,.03,1.54,.07,.92,.07,1.44,.57,1.49,1.4,.05,.84-.38,1.49-1.29,1.57-1.17,.11-2.36,.1-3.53,.01-.87-.06-1.33-.66-1.33-1.55,0-.45,0-.9,0-1.4-.63-.05-1.2-.07-1.76-.15-.88-.12-1.34-.65-1.34-1.54,0-.94-.02-1.88,0-2.82,.03-1.23,.47-1.68,1.72-1.75,.42-.02,.84,0,1.14,0,.24-.96,.22-2.04,.75-2.59,.5-.52,1.58-.5,2.59-.76,0-1.31-.02-2.81,0-4.31,.02-1.09,.54-1.62,1.53-1.62,.89,0,1.47,.45,1.49,1.36,.05,2.15,.04,4.3,0,6.46-.02,.79-.5,1.28-1.33,1.35-.54,.05-1.08,.08-1.67,.13Z"/>
        <path class="cls-4" d="M98.25,83.55c0-1.29,0-2.53,0-3.76,0-.42,0-.86,.11-1.26,.21-.76,.78-1.18,1.55-1.12,.76,.06,1.3,.5,1.39,1.32,.06,.56,.06,1.13,.09,1.73h6.21c0-.52-.03-1.02,0-1.52,.06-.91,.66-1.52,1.47-1.55,.86-.03,1.5,.58,1.54,1.55,.04,.97,.04,1.94,.01,2.91-.03,1.23-.5,1.71-1.73,1.72-2.15,.03-4.3,.01-6.46,.01-.33,0-.65,0-1.04,0v3.08c.59,.03,1.13,.03,1.66,.1,.93,.13,1.42,.73,1.37,1.61-.05,.82-.59,1.35-1.5,1.39-.97,.04-1.94,.03-2.91,.01-1.2-.02-1.69-.51-1.77-1.72-.03-.42,0-.84,0-1.4-.6,0-1.11,.03-1.61,0-.88-.06-1.45-.61-1.5-1.41-.05-.78,.46-1.43,1.32-1.57,.53-.09,1.08-.09,1.78-.14Z"/>
        <path class="cls-4" d="M88.98,58.81c-1.26-.3-3.06,.46-3.08-1.55-.02-2.02,1.78-1.4,3.08-1.61,0-.54-.04-1.05,0-1.55,.08-.95,.56-1.45,1.52-1.46,3.12-.03,6.24-.03,9.37,0,.96,.01,1.47,.6,1.46,1.49,0,.9-.53,1.43-1.48,1.48-.5,.03-1.01,0-1.63,0,0,.54,0,.95,0,1.37-.03,1.25-.48,1.7-1.7,1.71-1.45,.01-2.9,0-4.5,0,0,.57,.02,1.07,0,1.57-.04,.98-.53,1.51-1.41,1.55-.98,.04-1.52-.42-1.61-1.43-.04-.51,0-1.02,0-1.58Z"/>
        <path class="cls-4" d="M123.17,58.77h3.05c0-.52-.02-1.02,0-1.52,.05-.99,.62-1.54,1.53-1.54,.9,0,1.48,.58,1.54,1.55,.03,.47,0,.95,0,1.46,1.25,.24,3.05-.39,3.05,1.62,0,1.99-1.78,1.3-3.05,1.59,0,.48,.02,.98,0,1.48-.06,.97-.66,1.56-1.55,1.56-.9,0-1.46-.58-1.53-1.56q-.11-1.56-1.71-1.56c-.91,0-1.82,.01-2.72-.02-1.34-.05-1.75-.49-1.78-1.85,0-.36,0-.72,0-1.27-.58,0-1.11,.02-1.64,0-.9-.04-1.43-.56-1.46-1.4-.04-.88,.49-1.49,1.4-1.57,.51-.04,1.02,0,1.64,0,.02-.54,.04-1.01,.07-1.48,.06-1.1,.56-1.64,1.53-1.64,.95,0,1.5,.55,1.54,1.64,.04,1.36,.02,2.72,.02,4.09,0,.12,.04,.23,.07,.43Z"/>
        <path class="cls-4" d="M101.28,136.37c-1.35,0-2.62,0-3.89,0-1.78,0-2.22-.46-2.26-2.27,0-.24-.03-.48-.05-.85-.53,0-1.04,.03-1.54,0-.91-.07-1.49-.67-1.49-1.51,0-.86,.55-1.47,1.47-1.51,1-.05,2-.04,3-.01,1.19,.03,1.66,.54,1.69,1.76,.01,.39,0,.78,0,1.25h6.28c0-.49-.02-.93,0-1.38,.05-1.09,.58-1.64,1.54-1.63,.92,0,1.44,.53,1.48,1.58,.04,.97,.04,1.94,0,2.91-.04,1.15-.54,1.62-1.7,1.67-.42,.02-.83,0-1.27,0-.3,1.25,.39,3.13-1.71,3.06-1.93-.06-1.3-1.82-1.56-3.06Z"/>
        <path class="cls-4" d="M141.78,55.67h-3.19c0,.53,.03,1.03,0,1.53-.07,1.02-.55,1.48-1.56,1.5-.94,.02-1.88,.01-2.82,0-1.27-.01-1.74-.47-1.79-1.75-.02-.39,0-.78,0-1.33-.56,0-1.06,.02-1.56,0-.96-.04-1.51-.57-1.54-1.44-.03-.9,.54-1.54,1.53-1.54,4.12-.02,8.24-.03,12.36,0,1.05,0,1.54,.53,1.58,1.59,.04,1,.04,2,0,3-.04,1.01-.59,1.5-1.56,1.49-.93-.01-1.39-.47-1.45-1.48-.03-.48,0-.96,0-1.55Z"/>
        <path class="cls-4" d="M88.96,71.25c-.18,1.21,.43,2.87-1.58,3.02-1.08,.08-1.35-.49-1.59-3h-3.07c0,.43,0,.87,0,1.31,0,1.12,.02,2.24-.04,3.36-.05,.93-.6,1.42-1.44,1.44-.86,.02-1.37-.42-1.55-1.34-.04-.21-.06-.42-.06-.63,0-1.76-.02-3.52,0-5.27,.02-1.53,.52-2.02,2.03-2.03,2.79-.01,5.58,0,8.37,0,.27,0,.55,0,.81,.06,.73,.17,1.15,.64,1.17,1.41,.03,.81-.34,1.36-1.13,1.52-.61,.12-1.25,.11-1.92,.16Z"/>
        <path class="cls-4" d="M57.83,96.01h3.14c.03-.57,.04-1.11,.1-1.64,.1-.92,.61-1.4,1.47-1.41,.87-.01,1.43,.42,1.5,1.35,.08,1.11,.09,2.24,.01,3.35-.07,.97-.57,1.39-1.55,1.42-1.3,.03-2.61,.04-3.91,0-.55-.01-.75,.17-.74,.73,.02,1.33,.01,2.67-.03,4-.03,.95-.6,1.5-1.45,1.51-.85,0-1.5-.54-1.51-1.48-.04-3.15-.04-6.31,0-9.46,.01-.95,.64-1.46,1.53-1.44,.9,.01,1.38,.51,1.44,1.51,.03,.48,0,.96,0,1.54Z"/>
        <path class="cls-4" d="M147.97,102.25c0-.6-.02-1.07,0-1.55,.05-.96,.5-1.47,1.45-1.52,1.06-.05,2.12-.05,3.18,0,.96,.05,1.41,.52,1.47,1.51,.06,.91,.06,1.82,.03,2.72-.04,1.44-.51,1.91-1.94,1.93-1.6,.02-3.21,0-4.81,0-1.24,0-2.48,.02-3.72,0-1.3-.02-1.88-.54-1.86-1.58,.02-1.01,.59-1.48,1.85-1.5,1.39-.01,2.78,0,4.36,0Z"/>
        <path class="cls-4" d="M135.47,65.03c-.61-.04-1.15-.05-1.68-.11-.88-.11-1.39-.68-1.37-1.5,.01-.81,.54-1.42,1.42-1.47,1.21-.07,2.42-.03,3.63-.04,.36,0,.71,0,1.11,0,.03-.65,.04-1.19,.1-1.73,.1-.88,.66-1.37,1.51-1.36,.8,.01,1.44,.49,1.46,1.32,.05,2.21,.04,4.42,0,6.63-.02,.76-.56,1.23-1.31,1.27-1.15,.05-2.3,.06-3.44,0-.8-.04-1.25-.56-1.34-1.35-.06-.51-.06-1.02-.08-1.64Z"/>
        <path class="cls-4" d="M138.58,117.79c.66,0,1.17-.04,1.67,0,.88,.08,1.4,.59,1.43,1.47,.04,1.06,.05,2.12,0,3.18-.04,.94-.64,1.5-1.49,1.52-.85,.02-1.43-.53-1.52-1.47-.05-.51-.06-1.02-.09-1.64-.98,0-1.9,0-2.83,0-.58,0-1.15,.02-1.72-.02-1.02-.06-1.59-.61-1.61-1.49-.02-.91,.58-1.5,1.63-1.56,.45-.03,.89,0,1.47,0,0-.93,0-1.77,0-2.6,0-.76-.02-1.52,.06-2.27,.09-.88,.7-1.36,1.54-1.34,.83,.02,1.43,.53,1.46,1.42,.05,1.54,.01,3.08,.01,4.8Z"/>
        <path class="cls-4" d="M82.77,83.58v3.09c.58,.03,1.12,.04,1.65,.1,.94,.12,1.44,.71,1.4,1.58-.04,.84-.55,1.41-1.46,1.42-2.12,.04-4.24,.04-6.35,0-.92-.02-1.49-.66-1.48-1.51,0-.81,.52-1.38,1.42-1.49,.51-.06,1.02-.06,1.68-.1,0-1.15,0-2.28,0-3.42,0-2.44,.33-2.76,2.78-2.76,.64,0,1.28-.03,1.9,.03,1.01,.1,1.54,.7,1.51,1.59-.03,.89-.6,1.41-1.62,1.46-.45,.02-.9,0-1.43,0Z"/>
        <path class="cls-4" d="M141.76,108.47c1.43,0,2.82,0,4.2,0,1.42,0,1.91,.49,1.93,1.9,.01,.91,.02,1.82-.01,2.72-.04,1-.62,1.56-1.52,1.55-.91-.01-1.43-.57-1.47-1.59-.02-.45,0-.9,0-1.5-.79,0-1.5,0-2.21,0-.82,0-1.64,.02-2.45-.02-.99-.05-1.51-.53-1.55-1.53-.05-1.12-.04-2.24,.03-3.35,.05-.8,.58-1.24,1.39-1.27,.83-.04,1.42,.4,1.55,1.21,.09,.59,.08,1.19,.12,1.89Z"/>
        <path class="cls-4" d="M163.45,127.11c.62,0,1.13-.03,1.63,0,.9,.07,1.42,.61,1.46,1.44,.03,.84-.53,1.53-1.42,1.58-1.09,.06-2.18,.06-3.27,0-.94-.05-1.45-.62-1.46-1.63-.03-2-.03-4,0-6,.01-1.02,.56-1.59,1.46-1.62,.9-.03,1.52,.51,1.58,1.51,.07,1.18,.03,2.36,.03,3.55,0,.35,0,.71,0,1.17Z"/>
        <path class="cls-4" d="M73.39,133.21c1.28,.26,2.92-.41,3.09,1.57,.1,1.13-.38,1.37-3.09,1.67,0,.47,.02,.98,0,1.47-.05,.96-.58,1.51-1.44,1.54-.89,.03-1.56-.54-1.58-1.5-.04-2.09-.04-4.18,0-6.27,.02-.96,.68-1.52,1.58-1.49,.88,.03,1.39,.56,1.44,1.53,.02,.48,0,.96,0,1.48Z"/>
        <path class="cls-4" d="M135.55,145.74c-.65-.03-1.16-.03-1.67-.08-.93-.1-1.47-.69-1.46-1.54,.01-.84,.59-1.42,1.52-1.46,1.06-.04,2.12-.04,3.18,0,.92,.04,1.43,.5,1.45,1.4,.05,2.12,.04,4.24,0,6.35-.02,.92-.57,1.4-1.43,1.43-.92,.03-1.53-.43-1.57-1.38-.07-1.54-.02-3.08-.02-4.74Z"/>
        <path class="cls-4" d="M61.09,111.53c-.28,1.29,.34,3.01-1.55,3.07-2.08,.07-1.45-1.79-1.7-3.07-.55,0-1.07,.04-1.57,0-.92-.08-1.45-.68-1.44-1.55,.01-.87,.57-1.47,1.5-1.48,2.09-.03,4.18-.03,6.27,0,.9,.01,1.49,.66,1.5,1.5,0,.84-.57,1.46-1.47,1.54-.5,.04-1.02,0-1.54,0Z"/>
        <path class="cls-4" d="M151.08,130.21c0-.64-.02-1.13,0-1.6,.06-.93,.55-1.45,1.49-1.48,1.06-.04,2.12-.04,3.18,0,.91,.04,1.49,.67,1.48,1.51,0,.83-.6,1.44-1.51,1.51-.48,.04-.96,0-1.54,0-.04,.56-.05,1.06-.1,1.56-.1,1.04-.59,1.51-1.65,1.54-.97,.03-1.94,.03-2.91,0-1.01-.04-1.55-.58-1.56-1.5,0-.94,.52-1.48,1.53-1.53,.48-.03,.96,0,1.58,0Z"/>
        <path class="cls-4" d="M57.9,83.51c1.2,.3,3.07-.38,3.03,1.7-.04,1.98-1.79,1.3-3.02,1.55-.03,.55-.05,1.11-.1,1.67-.07,.85-.58,1.33-1.4,1.36-.83,.03-1.5-.41-1.52-1.22-.06-2.27-.06-4.54,0-6.8,.02-.77,.77-1.3,1.51-1.27,.78,.03,1.33,.56,1.41,1.38,.05,.54,.06,1.08,.09,1.63Z"/>
        <path class="cls-4" d="M59.45,142.57c-1,0-2,.03-3,0-1.03-.04-1.59-.58-1.61-1.47-.03-.95,.51-1.54,1.6-1.56,2.03-.05,4.06-.04,6.09,0,1.01,.02,1.58,.63,1.59,1.5,0,.89-.62,1.5-1.66,1.53-1,.04-2,0-3,0Z"/>
        <path class="cls-4" d="M154.2,164.36c0-.69-.03-1.23,0-1.76,.05-.82,.52-1.26,1.33-1.33,.85-.08,1.52,.32,1.58,1.13,.1,1.26,.09,2.54,0,3.8-.06,.88-.79,1.18-1.56,1.22-.97,.05-1.94,.06-2.91,0-1.1-.07-1.61-.63-1.59-1.58,.02-.96,.53-1.42,1.69-1.47,.42-.02,.84,0,1.44,0Z"/>
        <path class="cls-4" d="M129.33,164.36c0-.67-.04-1.18,0-1.69,.08-.92,.68-1.44,1.56-1.42,.84,.02,1.43,.54,1.47,1.41,.05,1.09,.05,2.18,0,3.27-.04,.89-.56,1.4-1.54,1.47-1.03,.07-2.06,.07-3.09,0-1.03-.07-1.54-.67-1.52-1.57,.02-.89,.58-1.41,1.61-1.46,.45-.02,.9,0,1.5,0Z"/>
        <path class="cls-4" d="M110.71,86.67c0-.55-.03-1.05,0-1.56,.06-.93,.65-1.49,1.51-1.49,.86,0,1.46,.54,1.5,1.48,.05,1.06,.05,2.12,0,3.17-.04,.97-.53,1.46-1.47,1.5-1.06,.04-2.12,.04-3.18,0-.91-.04-1.44-.57-1.48-1.4-.05-.9,.43-1.47,1.37-1.6,.53-.07,1.08-.07,1.74-.11Z"/>
        <path class="cls-4" d="M126.23,86.67c0-.59-.03-1.1,0-1.61,.07-.86,.66-1.41,1.47-1.44,.77-.03,1.51,.53,1.56,1.35,.07,1.15,.08,2.3,0,3.45-.06,.81-.6,1.33-1.44,1.36-1.09,.03-2.18,.04-3.27,0-.89-.04-1.42-.62-1.44-1.44-.02-.85,.44-1.42,1.33-1.54,.54-.08,1.08-.07,1.78-.11Z"/>
        <path class="cls-4" d="M70.27,127.14c0,.61,.05,1.16-.01,1.7-.09,.81-.68,1.32-1.46,1.33-.81,.01-1.49-.52-1.53-1.36-.06-1.15-.06-2.3,0-3.45,.05-.78,.55-1.29,1.36-1.32,1.15-.04,2.3-.04,3.45,0,.75,.04,1.22,.49,1.3,1.27,.08,.83-.24,1.46-1.08,1.64-.61,.13-1.25,.12-2.03,.18Z"/>
        <path class="cls-4" d="M123.11,65.04c.57,0,1.15-.04,1.72,0,.85,.08,1.3,.6,1.36,1.43,.06,.77-.44,1.46-1.25,1.51-1.23,.08-2.48,.09-3.71,0-.83-.06-1.26-.71-1.22-1.53,.05-.81,.48-1.31,1.28-1.4,.6-.07,1.21-.01,1.81-.01,0,0,0,0,0,0Z"/>
        <path class="cls-4" d="M135.47,77.43c0,.55,.03,1.09,0,1.63-.06,.85-.59,1.36-1.38,1.41-.87,.05-1.54-.39-1.6-1.25-.09-1.2-.09-2.42,0-3.63,.06-.85,.78-1.36,1.58-1.3,.76,.05,1.34,.6,1.4,1.41,.05,.57,0,1.15,0,1.73,0,0,0,0,0,0Z"/>
        <path class="cls-4" d="M92.02,83.56c-.57,0-1.15,.04-1.72,0-.81-.06-1.26-.57-1.32-1.36-.06-.78,.27-1.48,1.07-1.54,1.34-.1,2.71-.11,4.05,.02,.8,.08,1.08,.8,1.01,1.58-.07,.77-.52,1.22-1.27,1.29-.6,.06-1.21,.01-1.81,.01,0,0,0,0,0,0Z"/>
        <path class="cls-4" d="M64.1,89.77c-.57,0-1.15,.04-1.72,0-.84-.08-1.32-.62-1.35-1.43-.03-.81,.41-1.46,1.24-1.52,1.23-.08,2.48-.08,3.71,0,.81,.06,1.27,.75,1.22,1.53-.04,.78-.56,1.35-1.38,1.41-.57,.05-1.15,0-1.72,0,0,0,0,0,0,0Z"/>
        <path class="cls-4" d="M95.11,74.37c0,.51,.02,1.03,0,1.54-.04,.87-.6,1.43-1.42,1.46-.86,.04-1.51-.41-1.57-1.29-.08-1.2-.08-2.42,.01-3.63,.06-.84,.78-1.31,1.61-1.25,.78,.06,1.3,.61,1.37,1.43,0,.06,0,.12,0,.18,0,.51,0,1.03,0,1.54,0,0,0,0,0,0Z"/>
        <path class="cls-4" d="M135.47,108.43c0,.55,.03,1.09,0,1.64-.06,.89-.61,1.44-1.42,1.47-.83,.04-1.51-.44-1.57-1.31-.08-1.2-.07-2.42,.01-3.63,.06-.8,.72-1.26,1.53-1.24,.79,.02,1.37,.52,1.44,1.34,.05,.57,.01,1.15,.01,1.73,0,0,0,0,0,0Z"/>
        <path class="cls-4" d="M79.61,139.44c-.57,0-1.15,.05-1.72-.01-.83-.08-1.38-.75-1.36-1.54,.02-.78,.53-1.39,1.36-1.43,1.18-.06,2.36-.06,3.53,0,.83,.05,1.29,.65,1.29,1.47,0,.81-.47,1.4-1.29,1.49-.6,.06-1.21,.01-1.81,.01,0,0,0,0,0,0Z"/>
        <path class="cls-4" d="M104.46,164.39c.6,0,1.21-.04,1.81,0,.76,.07,1.2,.53,1.26,1.31,.06,.77-.2,1.49-1.03,1.56-1.34,.11-2.7,.11-4.05,0-.81-.07-1.12-.77-1.06-1.55,.06-.75,.47-1.25,1.25-1.32,.6-.05,1.21-.01,1.81-.01Z"/>
        <path class="cls-4" d="M107.56,154.92c-.6,0-1.21,.04-1.81-.01-.82-.07-1.21-.61-1.25-1.4-.04-.82,.42-1.47,1.23-1.52,1.23-.07,2.48-.07,3.71,0,.8,.05,1.24,.71,1.2,1.54-.04,.81-.45,1.31-1.27,1.38-.6,.05-1.21,0-1.81,0,0,0,0,0,0,0Z"/>
        <path class="cls-4" d="M144.89,164.29c0-.54-.03-1.09,0-1.63,.05-.89,.58-1.4,1.44-1.41,.87-.02,1.48,.45,1.52,1.33,.06,1.17,.06,2.36,0,3.53-.05,.79-.72,1.32-1.48,1.32-.81,0-1.42-.57-1.47-1.42-.04-.57,0-1.15,0-1.72Z"/>
        <path class="cls-4" d="M154.09,95.97c-.57,0-1.15,.04-1.72-.01-.81-.07-1.29-.65-1.3-1.46,0-.84,.43-1.45,1.25-1.49,1.2-.07,2.42-.07,3.62,0,.8,.04,1.3,.71,1.29,1.49-.01,.78-.54,1.37-1.33,1.48-.06,0-.12,.01-.18,.01-.54,0-1.09,0-1.63,0,0,0,0,0,0-.01Z"/>
        <path class="cls-4" d="M121.54,83.58c-.84,0-1.51-.64-1.53-1.47-.02-.86,.68-1.6,1.53-1.6,.8,0,1.57,.8,1.55,1.6-.03,.82-.71,1.48-1.54,1.48Z"/>
        <path class="cls-4" d="M76.49,109.97c.01,.89-.66,1.58-1.53,1.57-.81,0-1.5-.7-1.52-1.51-.02-.84,.7-1.56,1.55-1.56,.83,0,1.48,.66,1.5,1.5Z"/>
        <path class="cls-4" d="M99.84,74.28c-.84,.01-1.59-.72-1.57-1.55,.01-.8,.71-1.5,1.52-1.51,.86-.02,1.56,.68,1.55,1.55,0,.81-.69,1.5-1.5,1.51Z"/>
        <path class="cls-4" d="M88.92,78.95c0,.83-.64,1.5-1.47,1.53-.88,.02-1.58-.65-1.58-1.52,0-.82,.77-1.59,1.57-1.57,.78,.03,1.48,.75,1.48,1.56Z"/>
        <path class="cls-4" d="M92.02,128.63c0,.83-.66,1.51-1.47,1.53-.85,.02-1.58-.69-1.58-1.54,0-.87,.7-1.54,1.58-1.52,.85,.02,1.47,.67,1.47,1.52Z"/>
        <path class="cls-4" d="M126.2,78.97c-.01,.83-.74,1.52-1.6,1.5-.87-.02-1.53-.71-1.49-1.58,.03-.79,.74-1.49,1.53-1.5,.77,0,1.57,.8,1.56,1.58Z"/>
        <path class="cls-4" d="M132.39,82.08c-.01,.82-.68,1.49-1.51,1.5-.87,.01-1.57-.69-1.56-1.54,.01-.8,.73-1.52,1.51-1.54,.82-.02,1.57,.75,1.56,1.58Z"/>
        <path class="cls-4" d="M147.89,119.27c.02,.83-.61,1.53-1.43,1.57-.88,.05-1.56-.6-1.57-1.5-.02-.91,.62-1.58,1.5-1.57,.82,0,1.48,.66,1.5,1.5Z"/>
        <path class="cls-4" d="M138.59,82.1c-.02,.83-.68,1.48-1.52,1.48-.87,0-1.57-.71-1.55-1.56,.02-.78,.77-1.52,1.54-1.52,.83,0,1.55,.75,1.53,1.6Z"/>
        <path class="cls-4" d="M132.39,66.54c0,.85-.74,1.56-1.58,1.53-.81-.03-1.49-.73-1.49-1.54,0-.85,.73-1.55,1.58-1.52,.82,.03,1.49,.72,1.49,1.53Z"/>
        <path class="cls-4" d="M168.14,102.26c.81,.02,1.49,.7,1.49,1.52,0,.85-.72,1.57-1.57,1.55-.81-.02-1.49-.71-1.49-1.53,0-.86,.71-1.56,1.56-1.54Z"/>
        <path class="cls-4" d="M143.3,71.22c.81,.01,1.49,.7,1.5,1.51,0,.86-.7,1.57-1.55,1.55-.87-.02-1.5-.71-1.47-1.61,.03-.85,.68-1.47,1.52-1.46Z"/>
        <path class="cls-4" d="M76.49,141c.02,.88-.66,1.58-1.52,1.57-.8,0-1.51-.71-1.53-1.5-.02-.84,.7-1.57,1.55-1.57,.84,0,1.48,.64,1.5,1.49Z"/>
        <path class="cls-4" d="M92.02,134.88c-.02,.82-.7,1.48-1.52,1.48-.85,0-1.55-.73-1.53-1.58,.03-.83,.71-1.48,1.53-1.48,.87,0,1.54,.7,1.52,1.57Z"/>
        <path class="cls-4" d="M81.17,133.26c-.81,0-1.5-.69-1.53-1.5-.02-.86,.67-1.56,1.55-1.55,.88,0,1.54,.7,1.51,1.58-.03,.83-.7,1.48-1.53,1.47Z"/>
        <path class="cls-4" d="M76.49,128.64c0,.87-.71,1.55-1.57,1.52-.8-.03-1.49-.75-1.47-1.55,.01-.83,.68-1.49,1.51-1.51,.9-.02,1.55,.63,1.54,1.53Z"/>
        <path class="cls-4" d="M76.49,97.58c0,.85-.62,1.49-1.47,1.51-.87,.02-1.58-.66-1.58-1.51,0-.86,.71-1.54,1.58-1.52,.85,.02,1.47,.66,1.47,1.51Z"/>
        <path class="cls-4" d="M57.85,116.23c0,.86-.63,1.5-1.47,1.51-.85,.01-1.55-.7-1.54-1.56,.01-.86,.73-1.55,1.58-1.51,.82,.03,1.44,.7,1.43,1.56Z"/>
        <path class="cls-4" d="M84.27,130.16c-.85-.02-1.55-.77-1.51-1.6,.04-.85,.7-1.46,1.55-1.45,.87,.01,1.55,.72,1.51,1.59-.04,.82-.74,1.48-1.55,1.46Z"/>
        <path class="cls-4" d="M87.4,130.2c.83,0,1.5,.65,1.52,1.48,.02,.86-.67,1.57-1.53,1.57-.81,0-1.5-.68-1.52-1.49-.02-.87,.66-1.57,1.53-1.56Z"/>
        <path class="cls-4" d="M160.34,131.69c.02,.79-.67,1.52-1.47,1.56-.87,.04-1.57-.62-1.59-1.5-.01-.86,.59-1.52,1.43-1.55,.86-.03,1.61,.65,1.63,1.49Z"/>
        <path class="cls-4" d="M85.82,134.82c0,.82-.66,1.51-1.48,1.53-.85,.03-1.58-.67-1.59-1.52,0-.82,.66-1.51,1.49-1.53,.87-.03,1.57,.65,1.58,1.52Z"/>
        <path class="cls-4" d="M137.07,74.28c-.84,0-1.58-.74-1.55-1.57,.02-.81,.72-1.49,1.53-1.5,.85,0,1.56,.71,1.54,1.57-.02,.82-.7,1.49-1.52,1.5Z"/>
        <path class="cls-4" d="M87.41,120.85c-.85,0-1.56-.71-1.55-1.56,.01-.82,.7-1.5,1.51-1.51,.85-.01,1.55,.7,1.54,1.56-.01,.82-.69,1.5-1.5,1.51Z"/>
        <path class="cls-4" d="M87.41,139.46c-.86,0-1.57-.7-1.55-1.56,.02-.82,.69-1.49,1.51-1.5,.83,0,1.51,.64,1.54,1.47,.03,.86-.65,1.58-1.51,1.59Z"/>
        <path class="cls-4" d="M168.13,120.85c-.82,.02-1.51-.64-1.55-1.46-.04-.86,.65-1.59,1.5-1.61,.81-.01,1.52,.65,1.56,1.47,.04,.86-.64,1.59-1.5,1.61Z"/>
        <path class="cls-4" d="M70.3,141.05c0,.81-.69,1.51-1.5,1.52-.84,.02-1.57-.71-1.56-1.55,.01-.87,.72-1.54,1.59-1.51,.82,.03,1.48,.72,1.47,1.54Z"/>
        <path class="cls-4" d="M132.39,141.08c-.02,.81-.72,1.49-1.53,1.5-.84,0-1.57-.73-1.54-1.58,.02-.81,.72-1.49,1.53-1.49,.86,0,1.56,.72,1.54,1.57Z"/>
        <path class="cls-4" d="M132.39,153.49c-.02,.87-.72,1.5-1.62,1.46-.84-.04-1.48-.71-1.46-1.54,.02-.86,.74-1.51,1.62-1.47,.84,.04,1.47,.71,1.45,1.54Z"/>
        <path class="cls-4" d="M76.49,91.39c0,.84-.65,1.49-1.48,1.5-.87,.01-1.58-.68-1.57-1.53,.01-.86,.73-1.54,1.59-1.51,.84,.03,1.46,.68,1.46,1.53Z"/>
        <path class="cls-4" d="M87.43,61.9c.85,.02,1.53,.75,1.49,1.61-.04,.83-.72,1.46-1.56,1.44-.87-.02-1.54-.74-1.49-1.6,.04-.81,.76-1.48,1.56-1.46Z"/>
        <path class="cls-4" d="M70.3,91.41c-.02,.86-.73,1.52-1.61,1.48-.82-.03-1.47-.73-1.45-1.55,.02-.86,.75-1.53,1.61-1.49,.83,.04,1.47,.73,1.45,1.55Z"/>
        <path class="cls-4" d="M126.2,72.76c0,.82-.76,1.54-1.6,1.52-.85-.02-1.52-.74-1.49-1.59,.03-.81,.71-1.47,1.52-1.47,.83,0,1.58,.73,1.57,1.55Z"/>
        <path class="cls-4" d="M119.97,72.72c.02,.8-.65,1.52-1.46,1.56-.85,.04-1.59-.65-1.6-1.5-.02-.82,.64-1.52,1.45-1.56,.84-.04,1.59,.66,1.61,1.5Z"/>
        <path class="cls-4" d="M143.28,117.74c-.88,0-1.52-.66-1.51-1.57,.01-.84,.66-1.5,1.49-1.5,.85,0,1.55,.72,1.54,1.57-.02,.82-.7,1.5-1.51,1.5Z"/>
        <path class="cls-4" d="M143.29,127.1c.87,0,1.54,.71,1.51,1.58-.03,.81-.73,1.48-1.54,1.47-.87-.01-1.51-.7-1.48-1.59,.03-.86,.66-1.47,1.51-1.46Z"/>
        <path class="cls-4" d="M92.02,88.29c0,.84-.65,1.49-1.5,1.5-.86,.01-1.57-.69-1.55-1.54,.01-.81,.7-1.5,1.51-1.51,.85-.02,1.55,.69,1.54,1.56Z"/>
        <path class="cls-4" d="M81.19,58.7c-.94,0-1.57-.63-1.54-1.52,.03-.82,.71-1.47,1.54-1.47,.89,0,1.55,.67,1.52,1.55-.02,.87-.62,1.44-1.52,1.44Z"/>
        <path class="cls-4" d="M157.23,88.28c0,.85-.73,1.54-1.59,1.51-.85-.03-1.46-.66-1.46-1.52,0-.87,.72-1.56,1.56-1.53,.8,.03,1.49,.75,1.49,1.54Z"/>
        <path class="cls-4" d="M161.91,86.73c.83,0,1.58,.79,1.54,1.59-.04,.81-.74,1.47-1.56,1.46-.88,0-1.54-.7-1.51-1.58,.03-.82,.71-1.49,1.53-1.48Z"/>
        <path class="cls-4" d="M99.8,64.95c-.82,0-1.52-.69-1.53-1.49-.02-.82,.73-1.57,1.56-1.57,.86,0,1.54,.72,1.51,1.59-.03,.83-.7,1.47-1.54,1.46Z"/>
        <path class="cls-4" d="M73.39,94.45c0,.88-.66,1.55-1.54,1.54-.83-.01-1.5-.67-1.51-1.5-.01-.87,.68-1.55,1.56-1.54,.85,.01,1.48,.65,1.49,1.49Z"/>
        <path class="cls-4" d="M74.97,120.89c.85,0,1.49,.63,1.51,1.48,.02,.88-.65,1.59-1.51,1.59-.82,0-1.56-.77-1.54-1.59,.03-.82,.71-1.48,1.53-1.48Z"/>
        <path class="cls-4" d="M129.3,69.68c-.02,.83-.79,1.54-1.61,1.5-.86-.04-1.52-.76-1.47-1.62,.04-.81,.73-1.46,1.55-1.45,.84,0,1.56,.75,1.54,1.57Z"/>
        <path class="cls-4" d="M85.82,162.78c0,.81-.69,1.51-1.49,1.54-.82,.02-1.57-.72-1.57-1.55,0-.86,.71-1.53,1.59-1.51,.83,.03,1.49,.7,1.48,1.52Z"/>
        <path class="cls-4" d="M132.39,72.79c-.02,.82-.71,1.49-1.53,1.49-.86,0-1.57-.72-1.54-1.57,.02-.86,.77-1.54,1.62-1.49,.82,.05,1.47,.75,1.45,1.57Z"/>
        <path class="cls-4" d="M78.13,92.96c.85,.02,1.47,.66,1.46,1.52,0,.89-.68,1.54-1.57,1.51-.83-.03-1.5-.71-1.49-1.52,0-.85,.72-1.53,1.59-1.51Z"/>
        <path class="cls-4" d="M99.77,139.51c.83-.02,1.52,.61,1.56,1.44,.04,.88-.62,1.6-1.48,1.62-.84,.02-1.59-.7-1.59-1.54,0-.8,.69-1.5,1.5-1.52Z"/>
        <path class="cls-4" d="M127.73,74.3c.81-.01,1.57,.74,1.58,1.55,0,.79-.68,1.49-1.48,1.53-.89,.04-1.58-.6-1.6-1.48-.02-.84,.68-1.58,1.51-1.6Z"/>
        <path class="cls-4" d="M146.34,133.3c.84-.02,1.51,.62,1.54,1.45,.04,.88-.61,1.59-1.48,1.61-.88,.02-1.53-.63-1.53-1.54,0-.86,.62-1.5,1.46-1.52Z"/>
        <path class="cls-4" d="M149.49,89.85c.87,0,1.53,.69,1.5,1.58-.03,.84-.68,1.46-1.52,1.46-.86,0-1.48-.63-1.49-1.48-.01-.89,.64-1.56,1.52-1.55Z"/>
        <path class="cls-4" d="M150.99,147.22c.01,.88-.67,1.56-1.53,1.55-.84-.02-1.47-.66-1.48-1.5-.01-.88,.57-1.49,1.44-1.51,.93-.03,1.57,.57,1.58,1.47Z"/>
        <path class="cls-4" d="M65.72,151.9c.85,.05,1.73,.05,2.59,.17,1.11,.16,1.8,.82,1.86,1.91,.08,1.72,.09,3.44,0,5.16-.06,1.11-.83,1.86-1.95,1.92-1.68,.08-3.38,.08-5.06,0-1.15-.05-1.91-.74-1.98-1.88-.11-1.74-.1-3.5,0-5.24,.07-1.11,.77-1.72,1.89-1.87,.86-.12,1.75-.11,2.65-.16Z"/>
        <path class="cls-4" d="M154.22,63.41c0-.76-.04-1.51,0-2.27,.09-1.3,.72-2.09,1.99-2.17,1.74-.11,3.49-.09,5.23,.01,1.1,.07,1.76,.74,1.82,1.81,.09,1.74,.1,3.5,0,5.24-.07,1.14-.81,1.84-1.96,1.9-1.68,.09-3.38,.09-5.07,0-1.19-.07-1.91-.88-2-2.09-.07-.81-.01-1.63-.01-2.45,0,0,0,0,0,0Z"/>
        <path class="cls-4" d="M60.98,63.34c.06-.79,.08-1.73,.22-2.66,.14-.97,.75-1.65,1.74-1.69,1.8-.08,3.62-.1,5.42,0,1.07,.06,1.76,.77,1.81,1.83,.09,1.75,.09,3.5,0,5.25-.05,1.06-.81,1.81-1.9,1.87-1.71,.09-3.44,.1-5.16,0-1.13-.06-1.8-.78-1.96-1.92-.11-.84-.11-1.69-.17-2.68Z"/>
      </g>
    </g>
    <g id="tether_crypto" data-name="tether, crypto">
      <path class="cls-3" d="M126.83,108.27c.19,.41,.1,.88-.21,1.19l-13.67,13.2c-.4,.39-1.02,.39-1.42,0l-13.67-13.2c-.31-.3-.41-.78-.21-1.19l5.06-10.57c.17-.36,.53-.59,.93-.59h17.21c.41,0,.76,.22,.93,.59l5.06,10.57Z"/>
      <g>
        <path class="cls-4" d="M112.24,123.45c-.39,0-.76-.14-1.06-.44l-13.67-13.2c-.47-.46-.6-1.17-.31-1.76l5.06-10.58c.25-.54,.79-.87,1.39-.87h17.21c.6,0,1.14,.33,1.39,.88l5.06,10.57c.28,.6,.15,1.31-.31,1.77h0l-13.67,13.19c-.3,.29-.68,.44-1.06,.44Zm-8.61-25.84c-.21,0-.39,.11-.48,.29l-5.06,10.58c-.09,.2-.05,.45,.11,.61l13.67,13.2c.2,.19,.52,.19,.71,0l13.67-13.2c.16-.15,.2-.41,.11-.61l-5.06-10.57c-.09-.19-.26-.3-.48-.3h-17.21Z"/>
        <g>
          <path class="cls-1" d="M112.24,110.79c-3.58,0-9.63-.54-9.63-2.53s5.85-2.4,7.64-2.48c.31-.02,.52,.2,.53,.49,.01,.28-.2,.52-.48,.53-4.43,.21-6.57,1.08-6.68,1.48,.15,.52,3.24,1.51,8.62,1.51s8.46-.99,8.62-1.53c-.11-.38-2.23-1.24-6.62-1.46-.28-.01-.5-.25-.48-.53,.01-.27,.22-.49,.53-.48,1.77,.09,7.58,.54,7.58,2.48s-6.05,2.52-9.63,2.52Z"/>
          <path class="cls-1" d="M118.82,102.68h-13.18c-.28,0-.51-.22-.51-.51s.22-.51,.51-.51h13.18c.28,0,.51,.22,.51,.51s-.22,.51-.51,.51Z"/>
          <path class="cls-1" d="M112.24,117.38c-.28,0-.51-.22-.51-.51v-6.59c0-.28,.22-.51,.51-.51s.51,.22,.51,.51v6.59c0,.28-.22,.51-.51,.51Z"/>
          <path class="cls-1" d="M112.24,108.77c-.28,0-.51-.22-.51-.51v-6.08c0-.28,.22-.51,.51-.51s.51,.22,.51,.51v6.08c0,.28-.22,.51-.51,.51Z"/>
        </g>
      </g>
    </g>
  </g>
  <g>
    <path class="cls-4" d="M204.67,137.9c.62,0,1.1,.26,1.44,.77,.34,.51,.51,.98,.51,1.39s-.13,.8-.4,1.16c.11,.12,.16,.28,.16,.47,0,.77-.06,1.49-.19,2.17-.13,.68-.21,1.23-.24,1.63-.04,.41-.07,.69-.12,.86-.04,.17-.12,.25-.22,.25-.2,0-.33-.2-.4-.58s-.09-.99-.09-1.8c-.37,.66-.84,1.22-1.41,1.69-.57,.47-1.12,.7-1.67,.7s-1.07-.21-1.57-.63-.75-.88-.75-1.38c0-.77,.27-1.68,.8-2.74,.53-1.06,1.2-1.98,2-2.77s1.51-1.18,2.14-1.18Zm1.02,3.11c-.01-.08-.02-.28-.02-.6s-.07-.64-.21-.96c-.14-.32-.34-.49-.62-.49-.46,0-1,.34-1.64,1.03-.64,.69-1.19,1.48-1.66,2.39s-.7,1.65-.7,2.23c0,.26,.12,.49,.37,.66,.25,.18,.51,.27,.78,.27,.62,0,1.26-.4,1.9-1.2,.65-.8,1.14-1.79,1.47-2.96,.04-.2,.14-.33,.32-.38Z"/>
    <path class="cls-4" d="M214.69,137.9c.31,0,.66,.23,1.03,.69,.38,.46,.57,.94,.57,1.45,0,.75-.19,1.73-.58,2.92-.39,1.19-.73,2.1-1.02,2.72-.29,.62-.57,.93-.82,.93-.19,0-.29-.1-.29-.31s.05-.46,.15-.78c.1-.32,.25-.75,.46-1.3,.71-1.88,1.06-3.25,1.06-4.11,0-.28-.08-.51-.24-.71-.16-.2-.3-.3-.41-.3s-.22,.02-.31,.06c-.1,.04-.2,.11-.31,.21s-.22,.19-.32,.3c-.1,.1-.23,.25-.38,.44-.15,.19-.28,.36-.39,.51-.11,.15-.25,.36-.44,.63s-.34,.49-.46,.67c-.48,.75-.84,1.31-1.08,1.66-.24,.35-.53,.81-.88,1.37-.68,1.1-1.07,1.65-1.15,1.65-.13,0-.27-.09-.42-.26-.15-.17-.22-.32-.22-.44s.05-.33,.14-.65c.4-1.27,.65-2.15,.75-2.64,.36-1.53,.54-2.83,.54-3.9,0-.56,.11-.84,.32-.84,.17,0,.33,.11,.5,.33,.17,.22,.25,.52,.25,.89s-.13,1.12-.39,2.26c-.26,1.14-.54,2.13-.85,2.98,1.39-2.38,2.46-4.05,3.23-5.01,.77-.96,1.42-1.44,1.96-1.44Z"/>
    <path class="cls-4" d="M225.15,132.99c.04-.08,.13-.12,.27-.12s.3,.13,.48,.39c.17,.26,.26,.55,.26,.89s-.13,1.25-.4,2.73c-.27,1.48-.72,3.48-1.36,5.98s-1.06,3.75-1.25,3.75c-.13,0-.26-.08-.4-.22s-.2-.31-.2-.49,.08-.64,.25-1.39c-.51,.61-1.07,1.11-1.67,1.51-.6,.39-1.17,.59-1.72,.59s-1.02-.22-1.41-.66c-.39-.44-.58-.92-.58-1.45s.13-1.18,.4-1.93c.27-.75,.62-1.48,1.04-2.17s.94-1.28,1.55-1.77,1.22-.73,1.83-.73c.92,0,1.52,.61,1.79,1.83,.6-2.54,.95-4.64,1.06-6.32,0-.2,.02-.34,.05-.42Zm-2.84,5.97c-.54,0-1.11,.31-1.72,.94-.61,.63-1.11,1.39-1.51,2.28s-.59,1.71-.59,2.47c0,.28,.11,.51,.34,.7,.23,.19,.47,.29,.74,.29,.55,0,1.25-.38,2.1-1.13,.96-.86,1.59-1.81,1.88-2.85,0-.77-.11-1.41-.32-1.92s-.52-.77-.92-.77Z"/>
    <path class="cls-4" d="M245.02,137.9c.31,0,.6,.21,.86,.65,.26,.43,.4,1.09,.4,1.98s-.25,2.13-.76,3.71c-.51,1.58-.97,2.37-1.39,2.37-.19,0-.29-.12-.29-.36s.12-.66,.35-1.27,.47-1.32,.71-2.15c.24-.83,.36-1.66,.36-2.49s-.16-1.24-.47-1.24c-.18,0-.35,.07-.5,.2-.16,.13-.28,.25-.38,.34s-.21,.24-.35,.43-.26,.36-.37,.5c-.11,.14-.25,.35-.43,.63-.18,.28-.33,.51-.46,.7-.13,.19-.3,.46-.52,.82-.22,.35-.4,.63-.53,.82-.13,.19-.34,.56-.63,1.11-.67,1.3-1.1,1.96-1.29,1.96-.1,0-.2-.06-.31-.18-.11-.12-.16-.25-.16-.39s.08-.42,.25-.85c.17-.43,.36-.88,.57-1.36,.21-.48,.4-1.06,.57-1.76,.17-.69,.25-1.35,.25-1.96,0-.28-.08-.51-.24-.71-.16-.2-.3-.3-.42-.3s-.22,.02-.31,.05c-.09,.04-.19,.1-.3,.19-.11,.09-.21,.19-.31,.29s-.21,.24-.35,.42c-.14,.18-.26,.35-.38,.5-.11,.16-.25,.36-.42,.62-.17,.26-.32,.49-.46,.69-.14,.2-.31,.47-.53,.81-.22,.33-.43,.66-.64,.97-.21,.31-.49,.75-.83,1.31-.68,1.1-1.07,1.65-1.15,1.65-.13,0-.27-.09-.42-.26-.15-.17-.22-.32-.22-.43s.01-.24,.04-.39c.03-.14,.07-.33,.13-.55,.06-.22,.12-.44,.18-.66,.18-.54,.37-1.17,.57-1.89,.2-.72,.34-1.5,.42-2.32s.13-1.4,.14-1.73c.02-.33,.1-.5,.24-.5,.17,0,.33,.11,.5,.33,.17,.22,.25,.46,.25,.71,0,1.28-.43,3.15-1.29,5.62,1.45-2.55,2.54-4.29,3.28-5.23s1.39-1.41,1.97-1.41c.28,0,.6,.23,.97,.69,.37,.46,.56,.97,.56,1.53s-.13,1.27-.38,2.13c.91-1.63,1.66-2.76,2.25-3.39,.59-.63,1.15-.95,1.66-.95Z"/>
    <path class="cls-4" d="M252.04,137.9c.62,0,1.1,.26,1.44,.77,.34,.51,.51,.98,.51,1.39s-.13,.8-.39,1.16c.11,.12,.16,.28,.16,.47,0,.77-.06,1.49-.19,2.17-.12,.68-.21,1.23-.24,1.63s-.07,.69-.12,.86c-.04,.17-.12,.25-.22,.25-.2,0-.33-.2-.39-.58-.06-.39-.09-.99-.09-1.8-.37,.66-.84,1.22-1.41,1.69s-1.12,.7-1.67,.7-1.07-.21-1.57-.63-.75-.88-.75-1.38c0-.77,.27-1.68,.8-2.74,.53-1.06,1.2-1.98,2-2.77,.8-.79,1.51-1.18,2.14-1.18Zm1.02,3.11c-.01-.08-.02-.28-.02-.6s-.07-.64-.21-.96c-.14-.32-.34-.49-.62-.49-.46,0-1,.34-1.64,1.03-.64,.69-1.19,1.48-1.66,2.39s-.7,1.65-.7,2.23c0,.26,.12,.49,.37,.66,.25,.18,.51,.27,.78,.27,.62,0,1.26-.4,1.9-1.2,.65-.8,1.14-1.79,1.47-2.96,.04-.2,.14-.33,.32-.38Z"/>
    <path class="cls-4" d="M261.52,140.28c-.41,.42-.78,.92-1.11,1.5-.33,.58-.5,1.1-.5,1.57s.13,.88,.4,1.23c.26,.35,.55,.62,.87,.8,.32,.18,.61,.35,.87,.51,.26,.16,.39,.3,.39,.4,0,.2-.17,.31-.5,.31-.55,0-1.18-.31-1.88-.92-.7-.61-1.05-1.29-1.05-2.03v-.2c-1.03,1.33-1.71,2.18-2.05,2.57-.34,.38-.58,.58-.73,.58s-.27-.1-.39-.3c-.11-.2-.17-.39-.17-.58s.19-.97,.58-2.32c.38-1.36,.77-2.99,1.15-4.89,.38-1.9,.57-3.62,.57-5.15,0-.19,.02-.32,.07-.39,.05-.07,.14-.1,.29-.1s.29,.13,.44,.39c.15,.26,.22,.53,.22,.82,0,2.63-.74,6.27-2.23,10.91,2.03-2.98,3.63-5.08,4.77-6.3,.5-.53,.83-.79,.98-.79s.29,.07,.42,.21c.13,.14,.2,.26,.2,.36s-.17,.33-.5,.67c-.33,.35-.71,.73-1.11,1.15Z"/>
    <path class="cls-4" d="M270.62,140.72c0,.63-.32,1.12-.95,1.49-.63,.37-1.36,.55-2.19,.55s-1.69-.11-2.6-.34c-.19,.61-.29,1.15-.29,1.63s.17,.85,.5,1.12c.33,.27,.78,.4,1.33,.4s1.14-.11,1.76-.34c.62-.23,.98-.34,1.06-.34,.21,0,.32,.1,.32,.29,0,.24-.35,.54-1.06,.89-.71,.35-1.35,.53-1.94,.53-.83,0-1.53-.26-2.11-.78s-.87-1.2-.87-2.03,.21-1.71,.65-2.63c.43-.92,.99-1.7,1.69-2.32,.69-.63,1.38-.94,2.06-.94s1.29,.31,1.83,.94c.54,.63,.82,1.26,.82,1.88Zm-2.51-1.82c-.54,0-1.07,.26-1.61,.79-.53,.53-.97,1.18-1.32,1.97,.69,.17,1.38,.25,2.07,.25s1.25-.12,1.69-.35c.44-.23,.66-.54,.66-.92s-.16-.76-.48-1.16c-.32-.4-.66-.59-1-.59Z"/>
    <path class="cls-4" d="M290.35,137.9c.31,0,.6,.21,.86,.65,.26,.43,.4,1.09,.4,1.98s-.25,2.13-.76,3.71c-.51,1.58-.97,2.37-1.39,2.37-.19,0-.29-.12-.29-.36s.12-.66,.35-1.27,.47-1.32,.71-2.15c.24-.83,.36-1.66,.36-2.49s-.16-1.24-.47-1.24c-.18,0-.35,.07-.5,.2-.16,.13-.28,.25-.38,.34s-.21,.24-.35,.43-.26,.36-.37,.5c-.11,.14-.25,.35-.43,.63s-.33,.51-.46,.7c-.12,.19-.3,.46-.52,.82-.22,.35-.4,.63-.53,.82-.13,.19-.34,.56-.63,1.11-.67,1.3-1.1,1.96-1.29,1.96-.1,0-.2-.06-.3-.18-.11-.12-.16-.25-.16-.39s.08-.42,.25-.85c.17-.43,.36-.88,.57-1.36,.21-.48,.4-1.06,.57-1.76,.17-.69,.25-1.35,.25-1.96,0-.28-.08-.51-.24-.71-.16-.2-.3-.3-.42-.3s-.22,.02-.31,.05c-.09,.04-.19,.1-.3,.19-.11,.09-.21,.19-.3,.29-.1,.1-.21,.24-.35,.42-.14,.18-.26,.35-.38,.5-.11,.16-.25,.36-.42,.62-.17,.26-.32,.49-.46,.69s-.31,.47-.53,.81c-.21,.33-.43,.66-.64,.97-.21,.31-.49,.75-.83,1.31-.68,1.1-1.07,1.65-1.15,1.65-.13,0-.27-.09-.42-.26-.15-.17-.22-.32-.22-.43s.01-.24,.04-.39c.03-.14,.07-.33,.13-.55,.06-.22,.12-.44,.18-.66,.18-.54,.37-1.17,.57-1.89,.2-.72,.34-1.5,.42-2.32,.08-.82,.12-1.4,.14-1.73,.02-.33,.1-.5,.24-.5,.17,0,.33,.11,.5,.33,.17,.22,.25,.46,.25,.71,0,1.28-.43,3.15-1.29,5.62,1.45-2.55,2.54-4.29,3.28-5.23s1.39-1.41,1.97-1.41c.27,0,.6,.23,.97,.69,.37,.46,.56,.97,.56,1.53s-.13,1.27-.38,2.13c.91-1.63,1.66-2.76,2.25-3.39,.59-.63,1.15-.95,1.66-.95Z"/>
    <path class="cls-4" d="M299.73,140.72c0,.63-.32,1.12-.95,1.49-.63,.37-1.36,.55-2.19,.55s-1.69-.11-2.6-.34c-.19,.61-.29,1.15-.29,1.63s.17,.85,.5,1.12c.33,.27,.78,.4,1.33,.4s1.14-.11,1.76-.34c.62-.23,.98-.34,1.06-.34,.21,0,.32,.1,.32,.29,0,.24-.35,.54-1.06,.89-.71,.35-1.35,.53-1.94,.53-.83,0-1.53-.26-2.11-.78s-.87-1.2-.87-2.03,.21-1.71,.65-2.63c.43-.92,.99-1.7,1.69-2.32,.69-.63,1.38-.94,2.06-.94s1.29,.31,1.83,.94c.54,.63,.82,1.26,.82,1.88Zm-2.51-1.82c-.54,0-1.07,.26-1.61,.79-.53,.53-.97,1.18-1.32,1.97,.69,.17,1.38,.25,2.07,.25s1.25-.12,1.69-.35c.44-.23,.66-.54,.66-.92s-.16-.76-.48-1.16c-.32-.4-.66-.59-1-.59Z"/>
    <path class="cls-4" d="M310.14,133.53c0-.26,.02-.44,.07-.53s.15-.13,.3-.13,.32,.13,.49,.39c.17,.26,.25,.54,.25,.83,0,.96-.17,2.42-.51,4.39-.34,1.97-.87,3.96-1.59,5.99,1.42-2.49,2.53-4.21,3.3-5.15,.78-.95,1.45-1.42,2.01-1.42,.29,0,.62,.24,1,.71s.57,1,.57,1.57-.19,1.46-.57,2.67c-.38,1.2-.72,2.13-1.01,2.78-.29,.65-.57,.98-.83,.98-.19,0-.29-.11-.29-.31s.05-.48,.16-.83c.11-.34,.26-.79,.47-1.35,.68-1.86,1.02-3.18,1.02-3.97,0-.26-.08-.49-.24-.67-.16-.19-.31-.28-.46-.28-.35,0-.74,.27-1.18,.81-.44,.54-.89,1.17-1.37,1.89-.48,.72-.74,1.12-.78,1.17-.04,.06-.09,.14-.15,.23-.06,.1-.17,.26-.32,.49s-.41,.63-.75,1.19c-.67,1.08-1.04,1.62-1.11,1.62-.12,0-.26-.09-.41-.26-.16-.17-.23-.33-.23-.48s.07-.49,.21-1.03c.59-2.06,.99-3.67,1.22-4.85,.5-2.55,.75-4.7,.75-6.44Z"/>
    <path class="cls-4" d="M321.79,137.9c.62,0,1.1,.26,1.44,.77,.34,.51,.51,.98,.51,1.39s-.13,.8-.39,1.16c.11,.12,.16,.28,.16,.47,0,.77-.06,1.49-.19,2.17-.12,.68-.21,1.23-.24,1.63s-.07,.69-.12,.86c-.04,.17-.12,.25-.22,.25-.2,0-.33-.2-.39-.58-.06-.39-.09-.99-.09-1.8-.37,.66-.84,1.22-1.41,1.69s-1.12,.7-1.67,.7-1.07-.21-1.57-.63-.75-.88-.75-1.38c0-.77,.27-1.68,.8-2.74,.53-1.06,1.2-1.98,2-2.77s1.51-1.18,2.14-1.18Zm1.02,3.11c-.01-.08-.02-.28-.02-.6s-.07-.64-.21-.96c-.14-.32-.34-.49-.62-.49-.46,0-1,.34-1.64,1.03-.64,.69-1.19,1.48-1.66,2.39-.47,.9-.7,1.65-.7,2.23,0,.26,.12,.49,.37,.66,.25,.18,.51,.27,.78,.27,.62,0,1.26-.4,1.9-1.2,.65-.8,1.14-1.79,1.47-2.96,.04-.2,.14-.33,.32-.38Z"/>
    <path class="cls-4" d="M324.68,151.18c-.14,0-.27-.09-.4-.26-.12-.17-.19-.34-.19-.49s.2-1.04,.61-2.66c1.21-4.82,1.81-7.95,1.81-9.37,0-.2,.02-.34,.05-.42,.04-.08,.12-.12,.27-.12s.32,.13,.53,.4c.21,.27,.31,.53,.31,.78s-.1,.81-.3,1.67c.56-.93,1.16-1.65,1.79-2.15,.63-.5,1.24-.75,1.81-.75s1.01,.29,1.32,.88c.3,.59,.46,1.3,.46,2.14s-.33,1.73-1,2.67c-.67,.93-1.46,1.68-2.37,2.24-.91,.56-1.73,.84-2.46,.84-.38,0-.69-.07-.92-.2-.13,.53-.24,1-.32,1.41s-.16,.79-.24,1.13-.17,.7-.26,1.07c-.2,.79-.37,1.18-.51,1.18Zm2.09-5.64c.63,0,1.32-.21,2.06-.63,.74-.42,1.39-1.01,1.96-1.78s.84-1.57,.84-2.42c0-1.21-.26-1.81-.78-1.81s-1.22,.48-2.11,1.43c-.89,.95-1.57,2.03-2.05,3.22l-.48,1.94c.17,.04,.35,.05,.56,.05Z"/>
    <path class="cls-4" d="M332.68,151.18c-.14,0-.27-.09-.4-.26-.12-.17-.19-.34-.19-.49s.2-1.04,.61-2.66c1.21-4.82,1.81-7.95,1.81-9.37,0-.2,.02-.34,.05-.42,.04-.08,.12-.12,.27-.12s.32,.13,.53,.4c.21,.27,.31,.53,.31,.78s-.1,.81-.3,1.67c.56-.93,1.16-1.65,1.79-2.15,.63-.5,1.24-.75,1.81-.75s1.01,.29,1.32,.88c.3,.59,.46,1.3,.46,2.14s-.33,1.73-1,2.67c-.67,.93-1.46,1.68-2.37,2.24-.91,.56-1.73,.84-2.46,.84-.38,0-.69-.07-.92-.2-.13,.53-.24,1-.32,1.41s-.16,.79-.24,1.13-.17,.7-.26,1.07c-.2,.79-.37,1.18-.51,1.18Zm2.09-5.64c.63,0,1.32-.21,2.06-.63,.74-.42,1.39-1.01,1.96-1.78s.84-1.57,.84-2.42c0-1.21-.26-1.81-.78-1.81s-1.22,.48-2.11,1.43c-.89,.95-1.57,2.03-2.05,3.22l-.48,1.94c.17,.04,.35,.05,.56,.05Z"/>
    <path class="cls-4" d="M348.34,137.9c.16,0,.31,.1,.47,.31,.16,.21,.23,.4,.23,.58s-.05,.43-.16,.77c-.11,.34-.29,.88-.55,1.62-.26,.74-.49,1.4-.71,2-.22,.6-.54,1.5-.98,2.7-.44,1.2-.79,2.19-1.05,2.95-.56,1.58-1.35,2.37-2.35,2.37-.61,0-1.21-.19-1.81-.58-.6-.39-.9-.81-.9-1.25,0-.11,.05-.23,.14-.36,.1-.13,.18-.2,.25-.2s.21,.13,.43,.38c.63,.77,1.25,1.15,1.85,1.15,.23,0,.45-.1,.66-.31,.21-.2,.43-.57,.66-1.09,.33-.74,.84-2.12,1.51-4.13-.81,1.2-1.69,1.8-2.64,1.8-.55,0-1.01-.21-1.38-.64-.37-.42-.56-.95-.56-1.59s.16-1.49,.49-2.57,.7-2,1.1-2.76c.41-.77,.73-1.15,.97-1.15,.12,0,.24,.07,.35,.21,.11,.14,.17,.28,.17,.43s-.16,.55-.49,1.21-.66,1.45-1,2.38c-.33,.93-.5,1.77-.5,2.54,0,.28,.09,.51,.26,.69,.17,.19,.39,.28,.64,.28,.44,0,.91-.25,1.39-.74,.48-.49,.93-1.12,1.34-1.9,.73-1.44,1.35-2.96,1.85-4.56,.06-.32,.12-.49,.17-.51,.05-.02,.1-.03,.15-.03Z"/>
    <path class="cls-4" d="M349.69,145.67c0-.22,.08-.43,.24-.64,.16-.21,.33-.31,.49-.31s.37,.27,.62,.81c.25,.54,.37,.95,.37,1.22,0,.05-.04,.1-.12,.16-.08,.06-.15,.09-.22,.09-.26,0-.56-.17-.89-.5s-.49-.61-.49-.83Zm2.73-13.18c.16,0,.37,.08,.64,.23,.27,.16,.4,.3,.4,.43,0,1.14-.25,3.01-.75,5.63-.5,2.61-.88,3.92-1.14,3.92-.12,0-.22-.06-.31-.18-.09-.12-.13-.23-.13-.32s.04-.32,.12-.68c.08-.36,.17-.83,.29-1.43,.11-.59,.23-1.25,.35-1.96,.26-1.7,.39-3.43,.39-5.21,0-.29,.05-.43,.14-.43Z"/>
    <path class="cls-4" d="M363.83,147.01c-.25,0-.54-.18-.88-.55s-.5-.66-.5-.89,.08-.45,.22-.66c.15-.22,.3-.32,.46-.32,.2,0,.42,.28,.66,.85s.36,1,.36,1.3c0,.06-.04,.12-.11,.18-.07,.06-.14,.09-.21,.09Zm1.67-6.62c-.25,0-.54-.18-.88-.55s-.5-.66-.5-.89,.07-.45,.22-.67c.15-.22,.3-.33,.46-.33,.2,0,.43,.28,.67,.85,.25,.57,.37,1,.37,1.3,0,.06-.04,.12-.11,.19-.07,.07-.15,.1-.23,.1Z"/>
    <path class="cls-4" d="M373.62,137.09c0,1.09-.17,2.16-.49,3.21s-.75,1.97-1.27,2.76c-.51,.79-1.07,1.52-1.68,2.2-.6,.68-1.19,1.24-1.77,1.68-1.21,.91-2,1.36-2.39,1.36-.19,0-.29-.08-.29-.25,0-.1,.17-.29,.49-.59,.33-.3,.74-.66,1.23-1.07,.49-.41,1.03-.94,1.61-1.58,.58-.64,1.12-1.31,1.61-2.01,.49-.7,.9-1.53,1.23-2.48,.33-.95,.49-1.86,.49-2.72s-.1-1.58-.31-2.15-.45-1.03-.75-1.36c-.29-.33-.58-.61-.87-.83-.29-.23-.53-.42-.74-.59-.2-.17-.3-.32-.3-.45,0-.31,.25-.47,.75-.47,.72,0,1.47,.51,2.25,1.53,.78,1.02,1.18,2.29,1.18,3.81Z"/>
  </g>
</svg>