<svg id="Layer_1" data-name="Layer 1" xmlns="http://www.w3.org/2000/svg" viewBox="0 0 812.8 280.8"><defs><style>.cls-1{fill:#231f20;fill-rule:evenodd;}</style></defs><path class="cls-1" d="M268.25,10.34h.6c6.33.15,11.57,1.76,14.94,4.79,4.37,3.91,4.41,11.81,4.19,20.8H271.72v-8c0-2.77.2-6.56-1-7.53a3.75,3.75,0,0,0-3.71-.12c-1.52,1-1.19,6.09-1.19,9.09V49.8c0,2.92-.42,7.91,1.19,9a3.9,3.9,0,0,0,3.47-.12c1.25-.93,1.18-3.91,1.2-6.22,0-2.69,0-4.81,0-7.41H288c-.25,6,.44,10.85-1.55,15.19-1.28,2.76-4.6,5.37-7.66,6.69-8.88,3.84-23.77,1.56-27.38-6-1.64-3.41-1.51-7.33-1.91-12.07v-19c0-6.42.71-10.62,3.58-13.88C256.29,12.31,261.64,10.64,268.25,10.34Z"/><path class="cls-1" d="M297,11.3h23.43c3,18.78,6.25,37.28,9.21,56.08H314.41l-1.2-10.28-1,0h-7.15l-1.2,10.3H288.46q4.17-27.81,8.25-55.72a.32.32,0,0,1,.24-.36Zm11.72,36.24h3.22c-.69-7.63-1.9-15.79-2.75-23.67q-1.5,11.79-2.92,23.68Z"/><path class="cls-1" d="M332.46,11.42H348.6c.28,14,0,30.31.12,44.6,3,.28,6.58,0,9.81.12V67.38H332.34V11.78C332.33,11.61,332.32,11.44,332.46,11.42Z"/><path class="cls-1" d="M362.48,11.42h16.14V56c3.07.28,6.65,0,9.92.12V67.38H362.36V11.78C362.35,11.61,362.34,11.44,362.48,11.42Z"/><path class="cls-1" d="M424.89,21.46V57.82c1.38,0,3.61-.2,4.31-1.2,1-1.44.72-5.39.72-8.13V30.55c0-2.73.38-7.08-.6-8.37-.76-1-2.72-1.11-4.31-1.07-.14,0-.13.19-.12.35Zm-16.14-10c5,.17,10.58-.22,15.9,0,9.19.39,16.93.38,20.21,6.58,1.36,2.55,1.44,7.21,1.44,11.72V52.43c0,6.21-.52,10.79-4.43,13s-10,2-15.66,2c-6,0-12.28.1-17.7-.12V11.78A.33.33,0,0,1,408.75,11.42Z"/><path class="cls-1" d="M450.48,11.42h16c.4,13.51-.54,28.72,0,42.93.08,2.3.13,4.3,1.67,4.66,3.94.94,2.87-6.12,2.87-9.56V11.54c5.18-.28,10.88,0,16.26-.12V47.29c0,4.28.3,9.19-.95,12.32-2.07,5.16-7.4,8.23-14.11,8.85-9.37.87-19.91-2.37-21.53-10.88-.65-3.42-.23-7.35-.36-11.24-.35-11.11-.08-23.63,0-34.56C450.23,11.61,450.23,11.49,450.48,11.42Z"/><path class="cls-1" d="M490.9,11.42h35.51V22.66h-9.56c-.28,14.71,0,29.93-.12,44.84-5.42-.08-11.16.16-16.38-.12V22.66h-9.57V11.78C490.77,11.61,490.76,11.44,490.9,11.42Z"/><path class="cls-1" d="M529.4,11.42h14.83l4.64,14.44,3.85-14.44h14.83L555.66,47l.05.15V67.86H540.64V47.53Q535,29.66,529.4,11.78C529.32,11.68,529.22,11.45,529.4,11.42Z"/><path class="cls-1" d="M388.54,28c-.21,2.8-.12,7.14-.12,10.17,0,1-.41,2.48.6,2.87,1-.09.72-1.57.72-2.75V30.79c0-1.36.29-3.26-.84-3.11a.64.64,0,0,0-.36.36Zm-.48-3.59c2.34-.34,4.93.54,5.86,2.63.7,1.56.48,5.82.48,8.26,0,3.23.09,6-1.19,7.53-2.28,2.68-7.65,1.8-9-1.08-.8-1.73-.48-5.31-.48-7.65,0-3.59-.27-5.78.6-7.41A4.8,4.8,0,0,1,388.06,24.45Z"/><path class="cls-1" d="M403.25,24.69v3.95h-2.87a20.83,20.83,0,0,0-.12,3.59h2.63v3.7h-2.51c-.28,2.47,0,5.46-.12,8.13h-4.42V24.69Z"/><path class="cls-1" d="M561.45,61.47a3.37,3.37,0,0,1,1.57.41,3,3,0,0,1,1.19,1.19,3.21,3.21,0,0,1,0,3.19A3.07,3.07,0,0,1,563,67.44a3.2,3.2,0,0,1-3.17,0,3,3,0,0,1-1.19-1.18,3.26,3.26,0,0,1-.42-1.59,3.18,3.18,0,0,1,.43-1.6,2.9,2.9,0,0,1,1.19-1.19,3.35,3.35,0,0,1,1.58-.41Zm0,.53a2.77,2.77,0,0,0-1.32.35,2.52,2.52,0,0,0-1,1,2.67,2.67,0,0,0,0,2.66,2.61,2.61,0,0,0,1,1,2.68,2.68,0,0,0,2.65,0,2.61,2.61,0,0,0,1-1,2.67,2.67,0,0,0,0-2.66,2.48,2.48,0,0,0-1-1,2.7,2.7,0,0,0-1.3-.35ZM560,66.43h.56V65h.32a.71.71,0,0,1,.45.12,2.85,2.85,0,0,1,.58.8l.3.54h.68l-.42-.67a3.56,3.56,0,0,0-.51-.68.9.9,0,0,0-.29-.18,1.1,1.1,0,0,0,.72-.32.92.92,0,0,0,.26-.65.88.88,0,0,0-.16-.51.84.84,0,0,0-.43-.33,3,3,0,0,0-.88-.09H560v3.43Zm.56-1.93h.67a1.15,1.15,0,0,0,.66-.14.48.48,0,0,0,.18-.39.44.44,0,0,0-.09-.27.52.52,0,0,0-.23-.18,1.75,1.75,0,0,0-.56-.06h-.63Z"/><path class="cls-1" d="M27.05,184.56l.11,2,11,80.82,28.69.12h3.3l18.43-.06,7.79-108.3c.25-4-.62-4.62,2.69-4.9l8.2,113.21h50.5c2.92-14.21,4-31.18,6.17-45.65,2.32-15.61,14.4-102.78,14.52-114.39.1-8.72,0-17.52,0-26.25l-36.67-.27c-1,18.45-2.65,37.22-4,55.67l-3.52,48.79c-.24,3.82.74,5.28-2.28,6.15L123.3,81,72.39,81l-2.49,36c-.07,1.68.19,4.81-.88,5.6.9,5.25-3.18,51.76-4,65.13-.23,3.57.41,2.65-1.54,3.83-1.77-1-1.11,2.07-1.67-5.85-.16-2.25-.37-4.51-.54-6.76-1-13.28-6.16-93.37-7.26-97.59l-36.43-.35c0,28.41-.84,25.19,2.8,53.54C22.49,151.16,25,167.84,27.05,184.56Z"/><path class="cls-1" d="M683.9,267.76l2.22.05,5.51,0H699l2.4,0,4.58.07c1.09-.67.54-.13.8-1.5V237.09l0-2.35,0-153.16-35.91-.12-.24,81.26c-3.61-.23-2.34.46-5-8.06l-10-31.53c-2.35-7.15-4.44-13.76-6.7-21-1.77-5.66-4.57-16.25-6.8-20.67l-35.58,0-.3,186.38,36.11,0,0-81.11c3.87-.18,3.88,4.09,4.92,7.45,4.83,15.6,20.69,62.89,23.26,73.64Z"/><path class="cls-1" d="M320.43,114.64l6.11,0c7.4,0,8.51-.86,11.8,2l.08,29.39c0,4.87,1.24,13.67-2.43,15.17h-15.4l-.14-40.68,0-5.93Zm-41.3,152.41H320l-.09-70c.34-2.58.05-1.17.88-2.11l4,.12,17.07,52.07.93,3.11,5.49,16.7,35.86.07v-26.5l-21.64-58.61c15.65-9.72,17.18-14.78,17.18-37.29,0-14.57,2.22-39.06-4-50.64-7.76-14.47-22-13-41.92-13l-54.73,0Z"/><path class="cls-1" d="M541.41,114.76c6.5,0,14.93-1.55,15.94,3.63V217.5c0,7.35,1.52,16.55-4.16,16.54-11.23,0-14.05,1.33-14-6.33,0-34.41-.55-76.27.23-110.81l2-2.14ZM517.69,81.83C494,88.52,498,113.94,498,133.69q-.07,36.08,0,72.15c0,22.07-4.47,48.13,12.74,58.53,8.53,5.15,19.13,3.41,32.3,3.41,7,0,31.14.92,36.19-.28,3.89-.93,8.67-4.46,10.9-6.54,11.11-10.37,8.43-29.44,8.43-45.64s.88-95.6-.23-107.9c-1-11.24-5.33-18.32-12.89-22.68-5.83-3.36-6.6-3.3-14-3.28C562,81.48,521.15,80.85,517.69,81.83Z"/><path class="cls-1" d="M214.92,190c.07-8.9,1.66-20.24,2.47-29.39.43-4.85.84-9.7,1.31-14.57.24-2.48.42-4.71.6-7.26.26-3.81-.64-4.51,2.3-5.25L227.42,192c-1.25,1.64-10.85.83-13,.45l.48-2.39Zm-32.67-39.2c-.09,1.34.27,3.34-1,3.34.7,4.87-4.42,32.94-5.48,40.08-1.43,9.62-6.07,32.13-5.66,40.34-.55,10.43-.22,21.87-.21,32.54l35.7,0c3-.33,1.23.12,2.87-1.07l2.77-34.55,19.61-.29,3.08,36.29h38.4c3.56-23-5.89-72.78-9.4-95.65L252.6,103.56c-.61-4-1.16-7.63-1.73-11.45-.3-2-.6-3.75-.86-5.79-.76-5.74-.24-4.88-2.18-5.37-8.67,0-50.06-1-55,.51Z"/><path class="cls-1" d="M441.81,124.84l-1.43,2.9-30.46,64.58c-4.86,10.56-10,22-15.24,32.12-4.57,8.85-4.64,8.07-4.64,19.3,0,8,0,16,0,24l100.57.09,0-38.85H436.86l32-68.08c5.33-11.58,10.7-22.75,16.17-34.14,4.31-9,5.58-8.19,5.58-20,0-7.09.69-18.76-.25-25.29l-100.12,0-.18,38.78,53.79.08Z"/><path class="cls-1" d="M715.68,267.78l7.07,0,4.4-.05,72.37,0V228.94H756.75l-.3-33.55.31-2.4,32.56,0c2-.92.76.63,1.42-1.63l4.27-37.1-38.54,0,0-33.89,42.82,0,.25-1.53v-2.2l-.07-34.49H715.68Z"/><path class="cls-1" d="M715,225v1.08l0,39.56c.27,2.51,0,1.16.73,2.14V82.1h83.81c-1.33-1.83-12.27-.81-14.54-.81-5.05,0-10.17,0-15.19,0l-9.41.05H715.21Z"/></svg>